<svg xmlns="http://www.w3.org/2000/svg" width="18.017" height="19.48" viewBox="0 0 18.017 19.48">
  <path id="award" d="M20.87,17.25l-2.71-4.68A6.9,6.9,0,0,0,19,9.25a7,7,0,0,0-14,0,6.9,6.9,0,0,0,.84,3.32L3.13,17.25A1,1,0,0,0,4,18.75H6.87l1.46,2.46a1.047,1.047,0,0,0,.87.5h.14a1,1,0,0,0,.73-.49L12,17.9l1.93,3.35a1,1,0,0,0,.73.48h.14a1,1,0,0,0,.7-.28.87.87,0,0,0,.17-.21l1.46-2.46H20a1.015,1.015,0,0,0,.87-1.53ZM9.19,18.78,8.3,17.29a1,1,0,0,0-.85-.49H5.72l1.43-2.48a7,7,0,0,0,3.57,1.84ZM12,14.25a5,5,0,1,1,5-5,5,5,0,0,1-5,5Zm4.55,2.55a1,1,0,0,0-.85.49l-.89,1.49-1.52-2.65a7.06,7.06,0,0,0,3.56-1.84l1.43,2.48Z" transform="translate(-2.996 -2.25)" fill="#fff"/>
</svg>
