<svg xmlns="http://www.w3.org/2000/svg" width="180" height="180" viewBox="0 0 180 180">
  <g id="Cat2" transform="translate(-3780 -2052)">
    <rect id="Rectangle_1185" data-name="Rectangle 1185" width="180" height="180" transform="translate(3780 2052)" fill="#fff" opacity="0"/>
    <g id="noun_offices_1221001" transform="translate(3789.254 2059)">
      <g id="Group_1890" data-name="Group 1890" transform="translate(9.746 8)">
        <path id="Path_5736" data-name="Path 5736" d="M112.437,960.362a6.891,6.891,0,0,1,6.7,7.021V983.3H146.81a6.73,6.73,0,0,1,6.7,6.7v113.661a6.73,6.73,0,0,1-6.7,6.7H16.445a6.73,6.73,0,0,1-6.7-6.7v-88.6a6.73,6.73,0,0,1,6.7-6.7H44.12V967.383a6.894,6.894,0,0,1,6.7-7.021Zm0,3.571H50.818a3.311,3.311,0,0,0-3.127,3.449v139.408H69.864v-22.352a1.786,1.786,0,0,1,1.786-1.786H91.605a1.786,1.786,0,0,1,1.786,1.786v22.352h22.173V967.383A3.29,3.29,0,0,0,112.437,963.934Zm34.374,22.941H119.135v119.916H146.81a3.137,3.137,0,0,0,3.127-3.128V990a3.136,3.136,0,0,0-3.127-3.127ZM44.12,1011.94H16.445a3.136,3.136,0,0,0-3.127,3.127v88.6a3.137,3.137,0,0,0,3.127,3.128H44.12Zm45.7,74.283H73.435v20.567H89.82Z" transform="translate(-9.746 -960.362)" fill="#4c2a80" fill-rule="evenodd"/>
        <path id="Path_5737" data-name="Path 5737" d="M63.139,1011.31a1.786,1.786,0,0,1,1.786,1.786v7.628a1.785,1.785,0,0,1-1.786,1.786H55.493a1.785,1.785,0,0,1-1.786-1.786V1013.1a1.786,1.786,0,0,1,1.786-1.786Zm-1.786,3.572H57.279v4.057h4.075Z" transform="translate(24.794 -920.332)" fill="#4c2a80" fill-rule="evenodd"/>
        <path id="Path_5738" data-name="Path 5738" d="M63.139,997.62a1.786,1.786,0,0,1,1.786,1.786v7.628a1.786,1.786,0,0,1-1.786,1.786H55.493a1.786,1.786,0,0,1-1.786-1.786v-7.628a1.786,1.786,0,0,1,1.786-1.786Zm-1.786,3.571H57.279v4.057h4.075Z" transform="translate(24.794 -931.089)" fill="#4c2a80" fill-rule="evenodd"/>
        <path id="Path_5739" data-name="Path 5739" d="M63.139,983.923a1.786,1.786,0,0,1,1.786,1.786v7.646a1.786,1.786,0,0,1-1.786,1.786H55.493a1.786,1.786,0,0,1-1.786-1.786v-7.646a1.786,1.786,0,0,1,1.786-1.786Zm-1.786,3.571H57.279v4.075h4.075Z" transform="translate(24.794 -941.85)" fill="#4c2a80" fill-rule="evenodd"/>
        <path id="Path_5740" data-name="Path 5740" d="M63.139,970.237a1.786,1.786,0,0,1,1.786,1.786v7.646a1.786,1.786,0,0,1-1.786,1.786H55.493a1.786,1.786,0,0,1-1.786-1.786v-7.646a1.786,1.786,0,0,1,1.786-1.786Zm-1.786,3.571H57.279v4.075h4.075Z" transform="translate(24.794 -952.603)" fill="#4c2a80" fill-rule="evenodd"/>
        <path id="Path_5741" data-name="Path 5741" d="M49.435,1011.31a1.786,1.786,0,0,1,1.786,1.786v7.628a1.785,1.785,0,0,1-1.786,1.786H41.807a1.785,1.785,0,0,1-1.786-1.786V1013.1a1.786,1.786,0,0,1,1.786-1.786Zm-1.786,3.572H43.592v4.057h4.057Z" transform="translate(14.041 -920.332)" fill="#4c2a80" fill-rule="evenodd"/>
        <path id="Path_5742" data-name="Path 5742" d="M49.435,997.62a1.786,1.786,0,0,1,1.786,1.786v7.628a1.786,1.786,0,0,1-1.786,1.786H41.807a1.786,1.786,0,0,1-1.786-1.786v-7.628a1.786,1.786,0,0,1,1.786-1.786Zm-1.786,3.571H43.592v4.057h4.057Z" transform="translate(14.041 -931.089)" fill="#4c2a80" fill-rule="evenodd"/>
        <path id="Path_5743" data-name="Path 5743" d="M49.435,983.923a1.786,1.786,0,0,1,1.786,1.786v7.646a1.786,1.786,0,0,1-1.786,1.786H41.807a1.786,1.786,0,0,1-1.786-1.786v-7.646a1.786,1.786,0,0,1,1.786-1.786Zm-1.786,3.571H43.592v4.075h4.057Z" transform="translate(14.041 -941.85)" fill="#4c2a80" fill-rule="evenodd"/>
        <path id="Path_5744" data-name="Path 5744" d="M49.435,970.237a1.786,1.786,0,0,1,1.786,1.786v7.646a1.786,1.786,0,0,1-1.786,1.786H41.807a1.786,1.786,0,0,1-1.786-1.786v-7.646a1.786,1.786,0,0,1,1.786-1.786Zm-1.786,3.571H43.592v4.075h4.057Z" transform="translate(14.041 -952.603)" fill="#4c2a80" fill-rule="evenodd"/>
        <path id="Path_5745" data-name="Path 5745" d="M85.92,1026.22a1.786,1.786,0,0,1,1.786,1.786v7.628a1.785,1.785,0,0,1-1.786,1.786H78.274a1.785,1.785,0,0,1-1.786-1.786v-7.628a1.786,1.786,0,0,1,1.786-1.786Zm-1.786,3.572H80.06v4.057h4.075Z" transform="translate(42.693 -908.618)" fill="#4c2a80" fill-rule="evenodd"/>
        <path id="Path_5746" data-name="Path 5746" d="M85.92,1012.53a1.786,1.786,0,0,1,1.786,1.786v7.646a1.786,1.786,0,0,1-1.786,1.786H78.274a1.786,1.786,0,0,1-1.786-1.786v-7.646a1.786,1.786,0,0,1,1.786-1.786Zm-1.786,3.571H80.06v4.075h4.075Z" transform="translate(42.693 -919.374)" fill="#4c2a80" fill-rule="evenodd"/>
        <path id="Path_5747" data-name="Path 5747" d="M85.92,998.841a1.786,1.786,0,0,1,1.786,1.786v7.646a1.786,1.786,0,0,1-1.786,1.786H78.274a1.786,1.786,0,0,1-1.786-1.786v-7.646a1.786,1.786,0,0,1,1.786-1.786Zm-1.786,3.571H80.06v4.075h4.075Z" transform="translate(42.693 -930.129)" fill="#4c2a80" fill-rule="evenodd"/>
        <path id="Path_5748" data-name="Path 5748" d="M85.92,985.154a1.786,1.786,0,0,1,1.786,1.786v7.629a1.786,1.786,0,0,1-1.786,1.786H78.274a1.786,1.786,0,0,1-1.786-1.786V986.94a1.786,1.786,0,0,1,1.786-1.786Zm-1.786,3.571H80.06v4.057h4.075Z" transform="translate(42.693 -940.883)" fill="#4c2a80" fill-rule="evenodd"/>
        <path id="Path_5749" data-name="Path 5749" d="M26.662,1026.39a1.786,1.786,0,0,1,1.786,1.786v7.628a1.786,1.786,0,0,1-1.786,1.786H19.015a1.786,1.786,0,0,1-1.786-1.786v-7.628a1.786,1.786,0,0,1,1.786-1.786Zm-1.786,3.572H20.8v4.057h4.075Z" transform="translate(-3.866 -908.484)" fill="#4c2a80" fill-rule="evenodd"/>
        <path id="Path_5750" data-name="Path 5750" d="M26.662,1012.71a1.786,1.786,0,0,1,1.786,1.786v7.628a1.787,1.787,0,0,1-1.786,1.786H19.015a1.787,1.787,0,0,1-1.786-1.786V1014.5a1.786,1.786,0,0,1,1.786-1.786Zm-1.786,3.571H20.8v4.057h4.075Z" transform="translate(-3.866 -919.232)" fill="#4c2a80" fill-rule="evenodd"/>
        <path id="Path_5751" data-name="Path 5751" d="M26.662,999.011a1.786,1.786,0,0,1,1.786,1.785v7.646a1.786,1.786,0,0,1-1.786,1.786H19.015a1.786,1.786,0,0,1-1.786-1.786V1000.8a1.786,1.786,0,0,1,1.786-1.785Zm-1.786,3.571H20.8v4.075h4.075Z" transform="translate(-3.866 -929.996)" fill="#4c2a80" fill-rule="evenodd"/>
      </g>
    </g>
  </g>
</svg>
