<svg xmlns="http://www.w3.org/2000/svg" width="180" height="180" viewBox="0 0 180 180">
  <g id="Cat3" transform="translate(-3695 -2222)">
    <rect id="Rectangle_1186" data-name="Rectangle 1186" width="180" height="180" transform="translate(3695 2222)" fill="#fff" opacity="0"/>
    <g id="noun_concrete_mixer_truck_1815671" data-name="noun_concrete mixer truck_1815671" transform="translate(3683.654 2150.474)">
      <g id="Group_1891" data-name="Group 1891" transform="translate(14.347 86.526)">
        <path id="Path_5752" data-name="Path 5752" d="M218.324,147.091l-17.21-9.867c5.278-7.572,10.785-15.374,12.391-17.439a1.38,1.38,0,0,0,.229-.918c.688-16.751-13.768-22.028-13.768-22.028-1.147-.459-38.09,2.524-42.68,2.983-6.654.459-21.34,9.408-27.765,12.85a20.1,20.1,0,0,0-5.507,4.36s-27.765,31.895-27.994,31.895l-16.98-9.867a2.534,2.534,0,0,0-1.836,0L52.425,153.516a1.388,1.388,0,0,0-.688,1.377C51.048,158.335,46,187.935,46,188.164v27.994a1.887,1.887,0,0,0,.918,1.377L97.17,246.447a1.109,1.109,0,0,0,1.606,0l16.521-9.408a8.027,8.027,0,0,0,3.9,7.343c9.408,5.507,20.422-10.785,18.357-20.192l26.158-14.915c.229,3.212,1.606,5.736,3.9,6.884,8.719,5.278,18.816-8.72,18.586-17.439a8.4,8.4,0,0,0,3.671,5.048c9.637,5.507,20.422-11.244,18.357-20.192l2.983-1.836a1.427,1.427,0,0,0,.918-1.377V163.842l6.2-3.442a1.983,1.983,0,0,0,.688-1.377V148.7A1.787,1.787,0,0,0,218.324,147.091ZM104.971,184.952l21.569-12.62V198.72l-26.158,15.144Zm25.011-6.2,25.47-4.589a19.79,19.79,0,0,0,6.425-2.524l23.4-14.456a17.35,17.35,0,0,0,4.819-4.36c.459-.459,1.836-2.524,3.9-5.507l11.244,6.2-75.263,43.368Zm78.475-27.076-12.391-7.113c.918-1.377,2.065-2.983,3.212-4.589l14.915,8.49Zm2.065-33.5c-2.065,2.754-19.275,27.535-21.34,30.289a41.212,41.212,0,0,0-25.47-45.892l35.337-2.524C206.622,103.035,210.752,110.148,210.523,118.179Zm-55.759-14.685c23.4,4.589,37.861,27.765,29.6,50.481-6.654,4.589-15.6,9.637-22.717,14,7.572-22.946-5.966-47.5-29.371-53.005C137.784,111.984,149.257,105.1,154.764,103.494Zm-26.617,14c24.782,4.819,39.467,29.141,29.141,52.776-.688.229-27.306,5.048-27.306,5.048v-5.736a1.387,1.387,0,0,0-.688-1.377l-5.507-3.212c-2.065-9.408-11.244-18.816-21.11-18.357C102.677,146.632,127.688,117.95,128.147,117.491Zm-8.49,45.2L99.235,150.762C107.036,146.862,116.674,155.352,119.657,162.694ZM78.124,142.5l47.039,27.076-21.569,12.391L56.555,154.893Zm-23.4,15.144,47.039,27.076L96.94,214.782,49.671,187.476Zm41.532,60.577v13.538l-46.81-27.076V191.147ZM88.909,231.3v6.654L57.473,219.83v-6.654ZM49.442,208.357l4.589,2.754v6.654l-4.589-2.754Zm42.68,31.436v-6.654l4.13,2.524v6.654Zm23.4-6.654-15.833,9.178V218.224l27.076-15.6v16.062C121.033,220.977,116.674,227.173,115.526,233.139Zm5.278,8.49c-7.572-4.36,4.36-23.864,11.473-19.734C139.161,225.8,128.606,245.988,120.8,241.629Zm48.416-28.224c-1.377-.688-2.065-2.524-2.295-4.819-.229-6.654,7.572-18.357,13.768-14.915C188.036,198.031,176.563,217.765,169.22,213.405Zm22.258-12.62c-5.966-3.442.459-16.292,6.2-19.275,4.13-2.065,7.343-.459,7.572,4.36C205.475,192.524,197.673,204.456,191.478,200.785Zm17.439-21.34-2.065.918c-2.524-3.671-6.884-3.671-10.785-1.836-5.048,2.754-8.719,8.49-9.867,13.768l-1.377.918a8.807,8.807,0,0,0-2.524-2.524c-8.031-4.589-16.98,6.884-18.357,14.685l-27.765,15.833a10.877,10.877,0,0,0-2.295-2.295,7.542,7.542,0,0,0-3.9-.918V211.11l78.934-45.433ZM129.982,207.21v-6.425l79.393-45.663,6.425-3.9v6.654Z" transform="translate(-46 -96.792)" fill="#4c2a80" fill-rule="evenodd"/>
      </g>
    </g>
  </g>
</svg>
