<svg xmlns="http://www.w3.org/2000/svg" width="180" height="180" viewBox="0 0 180 180">
  <g id="Cat4" transform="translate(-3963 -2372)">
    <rect id="Rectangle_1182" data-name="Rectangle 1182" width="180" height="180" transform="translate(3963 2372)" fill="#fff" opacity="0"/>
    <g id="noun_Elevator_20557" transform="translate(3969.003 2128)">
      <g id="Group_1892" data-name="Group 1892" transform="translate(13.996 259)">
        <circle id="Ellipse_265" data-name="Ellipse 265" cx="11.836" cy="11.836" r="11.836" transform="translate(32.995 19.674)" fill="none" stroke="#4c2a80" stroke-width="4"/>
        <path id="Path_5753" data-name="Path 5753" d="M52.878,83.651V60.024L55.049,63.4a5.918,5.918,0,0,0,4.17,2.658l19.949,2.727a6.185,6.185,0,0,0,.809.054,5.911,5.911,0,0,0,.792-11.768l-17.25-2.358S53.274,38.972,51.635,36.551c-3.048-3.852-6.669-5.9-11.015-5.9a15.238,15.238,0,0,0-9.256,2.785c-.343.162-16.231,12.013-16.231,12.013a5.9,5.9,0,0,0-2.37,4.449L11.777,70.07a5.909,5.909,0,0,0,5.614,6.19c.1.006.2.009.294.009a5.911,5.911,0,0,0,5.9-5.622l.85-17.394,4.691-3.5c.039.063.073.121.111.181V83.576l-5.877,19.963L6.09,117.171a6.9,6.9,0,0,0,8.62,10.764l18.96-14.985a6.91,6.91,0,0,0,2.3-3.434l5.352-18.175,11.8,15.06v20.4a6.9,6.9,0,1,0,13.792,0v-22.9a6.891,6.891,0,0,0-1.611-4.43Z" transform="translate(-3.507 15.323)" fill="none" stroke="#4c2a80" stroke-width="4"/>
        <path id="Path_5754" data-name="Path 5754" d="M137.265,0H11.011A3.941,3.941,0,0,0,7.071,3.94V40.227a3.94,3.94,0,1,0,7.881,0V7.881h78.18V142.119H78.489a3.941,3.941,0,1,0,0,7.881h58.776a3.939,3.939,0,0,0,3.941-3.94V3.94A3.941,3.941,0,0,0,137.265,0ZM128.76,83.637l-9.85,9.85a2.461,2.461,0,0,1-3.481,0l-9.851-9.85a2.464,2.464,0,0,1,1.744-4.2h19.7a2.46,2.46,0,0,1,1.735,4.2Zm-1.719-13.07H107.319a2.464,2.464,0,0,1-1.745-4.2l9.851-9.85a2.459,2.459,0,0,1,3.482,0l9.678,9.674a2.465,2.465,0,0,1-1.544,4.382Z" transform="translate(-1.724)" fill="none" stroke="#4c2a80" stroke-width="4"/>
      </g>
    </g>
  </g>
</svg>
