<svg xmlns="http://www.w3.org/2000/svg" width="180" height="180" viewBox="0 0 180 180">
  <g id="Cat5" transform="translate(-3655 -1965)">
    <rect id="Rectangle_1181" data-name="Rectangle 1181" width="180" height="180" transform="translate(3655 1965)" fill="#fff" opacity="0"/>
    <g id="noun_guard_3396890" transform="translate(3648 1972)">
      <g id="Group_1901" data-name="Group 1901" transform="translate(36 8)">
        <path id="Path_5757" data-name="Path 5757" d="M36,37.811C65.811,30.24,73.382,27.4,97.987,8c24.133,19.4,31.7,22.24,61.514,29.811C158.555,98.852,145.779,121.565,97.987,158,49.722,121.565,36.946,98.852,36,37.811Zm12.776,9.464C69.123,42.069,84.738,34.5,97.987,24.088c12.776,10.41,28.391,17.981,48.738,23.186-.473,45.426-16.088,70.5-48.738,95.11C65.338,117.779,49.722,92.7,48.776,47.274Zm104.574,0c-.946,49.685-17.508,74.29-55.363,102.681C56.347,118.726,43.1,94.593,42.151,42.543c24.132-6.151,35.962-10.883,55.836-26.5,19.4,15.615,31.23,20.347,55.363,26.5Z" transform="translate(-36 -8)" fill="none" stroke="#4c2a80" stroke-width="3" fill-rule="evenodd"/>
      </g>
    </g>
  </g>
</svg>
