<svg xmlns="http://www.w3.org/2000/svg" width="180" height="180" viewBox="0 0 180 180">
  <g id="Cat6" transform="translate(-3485 -1965)">
    <rect id="Rectangle_1178" data-name="Rectangle 1178" width="180" height="180" transform="translate(3485 1965)" fill="#fff" opacity="0"/>
    <g id="noun_Gas_Tank_3339995" data-name="noun_Gas Tank_3339995" transform="translate(3511.052 2044.552)">
      <g id="Group_1902" data-name="Group 1902" transform="translate(21.948 -64.552)">
        <path id="Path_5758" data-name="Path 5758" d="M63.4,83.8a1.79,1.79,0,0,1-1.35-.75,1.72,1.72,0,0,1,.45-2.4,11.225,11.225,0,0,0,4.65-9c0-4.8-7.65-15.6-12-21-4.2,5.4-12,16.35-12,21a11.225,11.225,0,0,0,4.65,9,1.727,1.727,0,0,1-1.95,2.85A14.571,14.571,0,0,1,39.7,71.8c0-7.8,13.95-24.6,14.1-24.75L55,45.7l1.2,1.35c.15.15,14.1,17.1,14.1,24.75a14.176,14.176,0,0,1-6.15,11.7A1.146,1.146,0,0,1,63.4,83.8Z" transform="translate(-13.072 22.85)" fill="#4c2a80"/>
        <path id="Path_5759" data-name="Path 5759" d="M60.45,106.15a126.275,126.275,0,0,1-30-3.6l-1.35-.3V89.35a1.65,1.65,0,0,1,3.3,0v10.2a125.132,125.132,0,0,0,55.8,0V89.35a1.65,1.65,0,0,1,3.3,0v12.9l-1.05.3A126.275,126.275,0,0,1,60.45,106.15Z" transform="translate(-18.372 43.85)" fill="#4c2a80"/>
        <path id="Path_5760" data-name="Path 5760" d="M90.15,35.1a1.665,1.665,0,0,1-1.65-1.65v-24a68.567,68.567,0,0,0-56.1,0V33.6a1.65,1.65,0,1,1-3.3,0V7.2l.9-.45a72.057,72.057,0,0,1,60.9,0l.9.45V33.45A1.665,1.665,0,0,1,90.15,35.1Z" transform="translate(-18.372 0)" fill="#4c2a80"/>
        <path id="Path_5761" data-name="Path 5761" d="M44.976,55.426h0c-14.85-.15-21.45-1.8-21.75-1.8a1.706,1.706,0,0,1-1.2-2.1,1.557,1.557,0,0,1,1.95-1.2c.15,0,6.75,1.65,21,1.8a1.65,1.65,0,0,1,0,3.3Z" transform="translate(-21.948 25.124)" fill="#4c2a80"/>
        <path id="Path_5762" data-name="Path 5762" d="M39.576,62.776h0a103.888,103.888,0,0,1-16.35-1.65,1.706,1.706,0,0,1-1.2-2.1,1.557,1.557,0,0,1,1.95-1.2,96.872,96.872,0,0,0,15.6,1.65,1.7,1.7,0,0,1,1.65,1.8A1.542,1.542,0,0,1,39.576,62.776Z" transform="translate(-21.948 28.874)" fill="#4c2a80"/>
        <path id="Path_5763" data-name="Path 5763" d="M63.25,55.409a1.65,1.65,0,0,1,0-3.3c14.4-.15,20.85-1.8,21-1.8a1.71,1.71,0,0,1,.9,3.3c-.45.15-7.05,1.65-21.9,1.8Z" transform="translate(-2.122 25.141)" fill="#4c2a80"/>
        <path id="Path_5764" data-name="Path 5764" d="M66.85,62.809a1.665,1.665,0,0,1-1.65-1.65,1.917,1.917,0,0,1,1.65-1.8c10.65-.45,15.6-1.65,15.6-1.65a1.619,1.619,0,1,1,.75,3.15c-.15.3-5.25,1.5-16.35,1.95Z" transform="translate(-0.322 28.841)" fill="#4c2a80"/>
        <path id="Path_5765" data-name="Path 5765" d="M61.95,16.4a1.65,1.65,0,1,1,0-3.3,1.35,1.35,0,0,0,0-2.7H46.35a1.35,1.35,0,1,0,0,2.7,1.65,1.65,0,0,1,0,3.3,4.65,4.65,0,0,1,0-9.3h15.6a4.65,4.65,0,0,1,0,9.3Z" transform="translate(-12.072 3.55)" fill="#4c2a80"/>
        <path id="Path_5766" data-name="Path 5766" d="M50.55,23.55A1.665,1.665,0,0,1,48.9,21.9V12.75a1.65,1.65,0,1,1,3.3,0V21.9A1.665,1.665,0,0,1,50.55,23.55Z" transform="translate(-8.472 5.55)" fill="#4c2a80"/>
        <path id="Path_5767" data-name="Path 5767" d="M64,131.5a89.089,89.089,0,0,1-34.5-6.9A12.281,12.281,0,0,1,22,113.35V46.6A16.254,16.254,0,0,1,33.25,31.15,94.43,94.43,0,0,1,57.7,26.2v-9H70.45v9A94.43,94.43,0,0,1,94.9,31.15h0A16.064,16.064,0,0,1,106.15,46.6v66.6a12.281,12.281,0,0,1-7.5,11.25A90.561,90.561,0,0,1,64,131.5Zm-3-111v8.85H59.35c-8.1.3-16.05,1.95-25.05,4.8a12.822,12.822,0,0,0-9,12.3V113.2a8.658,8.658,0,0,0,5.4,8.1,86.851,86.851,0,0,0,66.6,0,8.658,8.658,0,0,0,5.4-8.1V46.6a12.873,12.873,0,0,0-9-12.3,87.675,87.675,0,0,0-25.05-4.8H67V20.65H61Z" transform="translate(-21.922 8.6)" fill="#4c2a80"/>
      </g>
    </g>
  </g>
</svg>
