<svg xmlns="http://www.w3.org/2000/svg" width="180" height="180" viewBox="0 0 180 180">
  <g id="Cat8" transform="translate(-3460 -2248)">
    <rect id="Rectangle_1180" data-name="Rectangle 1180" width="180" height="180" transform="translate(3460 2248)" fill="#fff" opacity="0"/>
    <g id="Group_1912" data-name="Group 1912" transform="translate(3475 2263)">
      <path id="Path_5776" data-name="Path 5776" d="M44.406,64.281a21.094,21.094,0,0,0,35.156,0h10.5a4.688,4.688,0,0,1,4.688,4.688V83.031a2.344,2.344,0,0,0,2.344,2.344h18.75a2.344,2.344,0,0,0,2.344-2.344V61.937A21.094,21.094,0,0,0,97.094,40.844H79.469a21.094,21.094,0,0,0-10.5-8.133V19.75h9.375a11.719,11.719,0,1,0,0-14.062H45.531a11.719,11.719,0,1,0,0,14.062h9.375V32.711a21.094,21.094,0,0,0-10.5,8.133H24.437V33.812a2.344,2.344,0,0,0-2.344-2.344H3.344A2.344,2.344,0,0,0,1,33.812v37.5a2.344,2.344,0,0,0,2.344,2.344h18.75a2.344,2.344,0,0,0,2.344-2.344V64.281ZM19.75,68.969H5.687V36.156H19.75ZM97.094,45.531A16.406,16.406,0,0,1,113.5,61.937v18.75H99.437V68.969a9.375,9.375,0,0,0-9.375-9.375H81.789a20.531,20.531,0,0,0,0-14.062ZM87.719,5.687a7.031,7.031,0,1,1-7.031,7.031A7.031,7.031,0,0,1,87.719,5.687ZM36.156,19.75a7.031,7.031,0,1,1,7.031-7.031A7.031,7.031,0,0,1,36.156,19.75Zm11.484-9.375H76.234A12.82,12.82,0,0,0,76,12.719a12.821,12.821,0,0,0,.234,2.344H47.641a12.821,12.821,0,0,0,.234-2.344,12.821,12.821,0,0,0-.234-2.344ZM59.594,19.75h4.687V31.609a19.594,19.594,0,0,0-4.687,0Zm2.344,16.406A16.406,16.406,0,1,1,45.531,52.562,16.406,16.406,0,0,1,61.937,36.156ZM42.086,45.531a20.531,20.531,0,0,0,0,14.062H24.437V45.531Z" transform="translate(-1 -1)" fill="none" stroke="#4c2a80" stroke-width="3"/>
      <path id="Path_5777" data-name="Path 5777" d="M127.923,63.9a2.344,2.344,0,0,0-2.2-.656l-15.727,3.633a.961.961,0,0,1-1.148-.727l-2.227-9.633a.937.937,0,0,1,.727-1.125l15.727-3.633a2.4,2.4,0,0,0,1.266-3.891,20.461,20.461,0,0,0-33.609,3.281c-.3.539-.539,1.078-.8,1.641L51.212,61.694A20.437,20.437,0,0,0,18.142,72.4a2.344,2.344,0,0,0,2.813,2.859l15.7-3.633a1.008,1.008,0,0,1,.727,0,1.078,1.078,0,0,1,.422.609l2.2,9.633a.938.938,0,0,1-.7,1.148l-15.75,3.609a2.344,2.344,0,0,0-1.266,3.8,20.42,20.42,0,0,0,33.656-3.164c.281-.539.539-1.078.773-1.641l38.789-8.859a20.484,20.484,0,0,0,13.1,4.922,14.247,14.247,0,0,0,1.43,0,20.508,20.508,0,0,0,18.469-15.445A2.344,2.344,0,0,0,127.923,63.9ZM51.845,84.991A15.8,15.8,0,0,1,28.97,90.335L40.384,87.71A5.648,5.648,0,0,0,44.6,80.936L42.4,71.3a5.672,5.672,0,0,0-6.773-4.242L24.212,69.733A15.783,15.783,0,0,1,51.845,84.991ZM57.306,70.53a20.345,20.345,0,0,0-2.461-4.687l33.609-7.828a20.836,20.836,0,0,0,.914,9.937,20.063,20.063,0,0,0,2.508,4.688L58.22,80.467a20.859,20.859,0,0,0-.914-9.938Zm52.383,6.352A15.891,15.891,0,0,1,93.8,66.428a15.633,15.633,0,0,1,1.031-12.914,15.82,15.82,0,0,1,10.289-7.781,16.946,16.946,0,0,1,3.563-.4,15.563,15.563,0,0,1,9.023,2.859L106.29,50.819a5.648,5.648,0,0,0-4.242,6.75l2.344,9.633a5.672,5.672,0,0,0,6.75,4.242l11.414-2.625a15.891,15.891,0,0,1-12.867,8.062Z" transform="translate(21.936 52.142)" fill="none" stroke="#4c2a80" stroke-width="3"/>
    </g>
  </g>
</svg>
