<svg xmlns="http://www.w3.org/2000/svg" width="180" height="180" viewBox="0 0 180 180">
  <g id="Cat9" transform="translate(-3498 -2269)">
    <rect id="Rectangle_1179" data-name="Rectangle 1179" width="180" height="180" transform="translate(3498 2269)" fill="#fff" opacity="0"/>
    <g id="noun_Electricity_3354083" transform="translate(3549.651 2306.971)">
      <g id="Group_1914" data-name="Group 1914" transform="translate(-37.651 -22.972)">
        <g id="Group_1913" data-name="Group 1913" transform="translate(0 0)">
          <path id="Path_5778" data-name="Path 5778" d="M181.045,453.619c-15.223,0-27.566-13.572-27.566-30.313s12.342-30.313,27.566-30.313,27.565,13.572,27.565,30.313S196.268,453.619,181.045,453.619Zm0-5.052c12.687,0,22.971-11.309,22.971-25.26s-10.284-25.26-22.971-25.26-22.971,11.309-22.971,25.26S168.358,448.567,181.045,448.567Zm-6.891-22.734a2.536,2.536,0,0,1-1.969-3.824l6.891-12.63a2.179,2.179,0,0,1,3.149-.866,2.667,2.667,0,0,1,.788,3.463l-4.8,8.806h9.726A2.536,2.536,0,0,1,189.9,424.6l-6.891,12.63a2.179,2.179,0,0,1-3.149.866,2.666,2.666,0,0,1-.788-3.463l4.8-8.806Zm-94.182,2.526V365.207a2.42,2.42,0,0,1,2.3-2.526h73.508a2.421,2.421,0,0,1,2.3,2.526v15.156a2.307,2.307,0,1,1-4.594,0v-12.63H84.565v60.625H135.1a2.537,2.537,0,0,1,0,5.052H68.486C62.142,433.41,57,427.754,57,420.78V348.419a12.884,12.884,0,0,1,5.908-11.041l52.657-32.169a10.593,10.593,0,0,1,11.487.21l48.415,31.944a12.932,12.932,0,0,1,5.577,10.832v19.539a2.308,2.308,0,1,1-4.594,0V348.194a7.761,7.761,0,0,0-3.347-6.5L124.688,309.75a6.357,6.357,0,0,0-6.892-.126L65.139,341.793a7.73,7.73,0,0,0-3.545,6.626V420.78c0,4.186,3.085,7.578,6.891,7.578Zm27.565-85.886a2.537,2.537,0,0,1,0-5.052h22.971a2.537,2.537,0,0,1,0,5.052Z" transform="translate(-57 -303.619)" fill="none" stroke="#4c2a80" stroke-width="3"/>
        </g>
      </g>
    </g>
  </g>
</svg>
