<svg xmlns="http://www.w3.org/2000/svg" width="179.588" height="187.035" viewBox="0 0 179.588 187.035">
  <g id="feature6" transform="translate(-1 0.99)">
    <path id="Path_5731" data-name="Path 5731" d="M155.562,79.607v5.6a3.53,3.53,0,0,1-3.736,3.848h-6a3.736,3.736,0,0,1-3.848-4.016V80.989a8.143,8.143,0,0,0-.149-1.868,9.078,9.078,0,0,0-1.756-.374,39.093,39.093,0,0,1-10.964-3.157c-3.175-1.532-3.736-2.8-2.82-6.182.56-2.073,1.139-4.128,1.868-6.182.336-1.065.953-3.063,2.914-3.063a5.361,5.361,0,0,1,2.447.784,32.836,32.836,0,0,0,11.319,3.381,13.411,13.411,0,0,0,7.042-.915A4.726,4.726,0,0,0,153,55.046a17.277,17.277,0,0,0-4.09-2.391c-1.233-.542-2.484-1.046-3.736-1.55a58.65,58.65,0,0,1-8.442-3.922c-7.34-4.389-10.684-10.1-10.236-17.445.523-8.592,5.211-14.569,13.934-17.744,2.391-.878,2.391-.878,2.391-3.269V5.287c0-3.231,1.046-4.184,4.24-4.277h3.026c5.6,0,6,.915,6.033,6.631,0,2.727,0,2.727,2.708,3.138a34.592,34.592,0,0,1,8.536,2.578,3.736,3.736,0,0,1,2.3,4.763l-.43,1.98c-.467,1.681-.953,3.343-1.494,5.006-.411,1.251-1.214,4.184-5.249,2.241a25.309,25.309,0,0,0-12.589-2.5,8.611,8.611,0,0,0-3.082.616,4.109,4.109,0,0,0-2.652,3.119,4,4,0,0,0,1.7,3.6,22,22,0,0,0,5.417,3.045l1.233.5a89.648,89.648,0,0,1,9.339,4.277,20.919,20.919,0,0,1,10.59,14.326,19.575,19.575,0,0,1-4.165,16.138,21.33,21.33,0,0,1-11.132,7.1C155.861,77.926,155.506,78.393,155.562,79.607Zm10.329,21.069a4.277,4.277,0,0,0-7.6.336l-1.532,3.343-.243.523-50.9-19a6.014,6.014,0,0,0-5.006,10.889L148.2,122.922l-.243.523-1.532,3.343a4.277,4.277,0,0,0,4.707,5.977l23.945-4.576a4.277,4.277,0,0,0,2.9-6.332ZM32.885,9.042A17.165,17.165,0,1,0,50.05,26.207,17.165,17.165,0,0,0,32.885,9.042Zm-19.2,166.851a8.153,8.153,0,1,0,16.306,0v-47.48a3.1,3.1,0,0,1,2.484-3.1,2.988,2.988,0,0,1,3.493,2.951v47.629a8.144,8.144,0,1,0,16.287,0V69.6L67.533,82.2a7.677,7.677,0,0,0,9.638.112L99.734,64.5a7.882,7.882,0,0,0,2.055-10.217,7.677,7.677,0,0,0-11.3-2.036L72.52,66.364,54.477,51.422A7.639,7.639,0,0,0,49.7,49.778H16.243A13.224,13.224,0,0,0,3,62.984V96.249a13.224,13.224,0,0,0,10.665,12.963Zm151.292-33.62H153.1a6.108,6.108,0,0,0-6.108,6.108v29.567a6.089,6.089,0,0,0,6.089,6.089H164.9a6.089,6.089,0,0,0,6.089-6.089V148.305a6.108,6.108,0,0,0-6.089-6.089Zm-35.414-15.465h-11.8a6.108,6.108,0,0,0-6.108,6.108v45.033a6.089,6.089,0,0,0,6.089,6.089h11.823a6.089,6.089,0,0,0,6.052-6.089V132.914a6.108,6.108,0,0,0-6.052-6.108ZM75.3,111.192v66.755a6.089,6.089,0,0,0,6.145,6.089H93.215a6.089,6.089,0,0,0,6.089-6.089V111.192a6.108,6.108,0,0,0-6.108-6.108H81.448a6.108,6.108,0,0,0-6.145,6.108Z" transform="translate(0)" fill="none" stroke="#4c2a80" stroke-width="4"/>
  </g>
</svg>
