<svg xmlns="http://www.w3.org/2000/svg" width="131.568" height="195.705" viewBox="0 0 131.568 195.705">
  <g id="feature1" transform="translate(2 2.154)">
    <g id="Group_1815" data-name="Group 1815" transform="translate(0 0)">
      <path id="Path_5644" data-name="Path 5644" d="M37.14,83.972l12.29-4.634,1.41,6.649a5.812,5.812,0,0,0,5.641,4.432H80.457A5.783,5.783,0,0,0,86.1,85.785l1.41-6.649L99.8,83.77a4.049,4.049,0,0,0,5.44-3.828V69.667c0-7.857-5.037-12.894-8.663-15.312a9.18,9.18,0,0,1-3.828-6.85C90.329,21.313,75.823,7.411,70.383,3.181a3.064,3.064,0,0,0-4.029,0C60.914,7.411,46.609,21.112,44.191,47.3a9.581,9.581,0,0,1-3.828,7.052C36.737,56.773,31.7,61.608,31.7,69.667V79.942A4.082,4.082,0,0,0,37.14,83.972ZM68.57,33.6a9.469,9.469,0,1,1,0,18.939,9.471,9.471,0,1,1,0-18.939Z" transform="translate(-4.702 -2.425)" fill="none" stroke="#4c2a80" stroke-width="4"/>
      <path id="Path_5645" data-name="Path 5645" d="M40.5,54.032V64.509a4.432,4.432,0,1,0,8.865,0V54.032a4.432,4.432,0,1,0-8.865,0Z" transform="translate(4.227 45.445)" fill="none" stroke="#4c2a80" stroke-width="4"/>
      <path id="Path_5646" data-name="Path 5646" d="M52.232,49.6A4.472,4.472,0,0,0,47.8,54.032V69.344a4.432,4.432,0,1,0,8.865,0V54.032A4.472,4.472,0,0,0,52.232,49.6Z" transform="translate(11.635 45.445)" fill="none" stroke="#4c2a80" stroke-width="4"/>
      <path id="Path_5647" data-name="Path 5647" d="M55.1,54.032V64.509a4.432,4.432,0,1,0,8.865,0V54.032a4.432,4.432,0,1,0-8.865,0Z" transform="translate(19.042 45.445)" fill="none" stroke="#4c2a80" stroke-width="4"/>
      <path id="Path_5648" data-name="Path 5648" d="M69.676,96.908,49.126,73.134a5.121,5.121,0,0,0-7.455-.4,5.514,5.514,0,0,0-1.209,6.447l.6,1.209A122.27,122.27,0,0,0,52.148,97.916l3.627,4.835a3.055,3.055,0,0,1,.6,2.619,3.737,3.737,0,0,1-1.41,2.418,3.055,3.055,0,0,1-2.619.6,3.737,3.737,0,0,1-2.418-1.41L46.3,102.147A127.1,127.1,0,0,1,34.619,83.41l-.6-1.209a12.338,12.338,0,0,1,2.821-14.909c.4-.2.6-.6,1.007-.806L30.388,47.547a5.842,5.842,0,0,0-5.238-3.828,6.184,6.184,0,0,0-4.835,1.612A6.559,6.559,0,0,0,18.3,49.965l.806,48.958a17.733,17.733,0,0,0,5.037,12.29l18.536,18.939h31.43l-.6-23.774A14.752,14.752,0,0,0,69.676,96.908Z" transform="translate(-18.3 39.439)" fill="none" stroke="#4c2a80" stroke-width="4"/>
      <path id="Path_5649" data-name="Path 5649" d="M30.7,102.19a3.1,3.1,0,0,0,3.022,3.022H58.7a3.1,3.1,0,0,0,3.022-3.022V89.9H30.7Z" transform="translate(-5.717 86.339)" fill="none" stroke="#4c2a80" stroke-width="4"/>
      <path id="Path_5650" data-name="Path 5650" d="M107.794,45.331a5.948,5.948,0,0,0-4.835-1.612,6.259,6.259,0,0,0-5.238,3.828L90.265,66.486c.4.2.6.6,1.007.806A12.338,12.338,0,0,1,94.093,82.2l-.6,1.209A131.412,131.412,0,0,1,81.8,102.147l-3.627,4.634a3.737,3.737,0,0,1-2.418,1.41,3.915,3.915,0,0,1-2.619-.6,3.737,3.737,0,0,1-1.41-2.418,3.915,3.915,0,0,1,.6-2.619l3.627-4.835A134.557,134.557,0,0,0,87.042,80.186l.6-1.209a5.514,5.514,0,0,0-1.209-6.447,5.318,5.318,0,0,0-3.828-1.41,5.709,5.709,0,0,0-3.627,1.813L58.432,96.908a15.853,15.853,0,0,0-3.828,9.268L54,130.152H85.228l18.536-18.939a17.376,17.376,0,0,0,5.037-12.29l.806-48.958A5.669,5.669,0,0,0,107.794,45.331Z" transform="translate(17.926 39.439)" fill="none" stroke="#4c2a80" stroke-width="4"/>
      <path id="Path_5651" data-name="Path 5651" d="M54,102.19a3.1,3.1,0,0,0,3.022,3.022H82a3.1,3.1,0,0,0,3.022-3.022V89.9H54Z" transform="translate(17.926 86.339)" fill="none" stroke="#4c2a80" stroke-width="4"/>
    </g>
  </g>
</svg>
