<svg xmlns="http://www.w3.org/2000/svg" width="188.671" height="186.163" viewBox="0 0 188.671 186.163">
  <g id="feature5" transform="translate(-1.3 -1.9)">
    <rect id="Rectangle_1159" data-name="Rectangle 1159" width="9.839" height="9.839" transform="translate(90.62 1.9)" fill="#4c2a80"/>
    <rect id="Rectangle_1160" data-name="Rectangle 1160" width="9.839" height="9.839" transform="translate(90.62 178.224)" fill="#4c2a80"/>
    <rect id="Rectangle_1161" data-name="Rectangle 1161" width="9.839" height="9.839" transform="translate(25.993 150.059)" fill="#4c2a80"/>
    <rect id="Rectangle_1162" data-name="Rectangle 1162" width="9.839" height="9.839" transform="translate(152.545 150.059)" fill="#4c2a80"/>
    <rect id="Rectangle_1163" data-name="Rectangle 1163" width="9.839" height="9.839" transform="translate(25.993 28.908)" fill="#4c2a80"/>
    <rect id="Rectangle_1164" data-name="Rectangle 1164" width="9.839" height="9.839" transform="translate(152.545 28.908)" fill="#4c2a80"/>
    <rect id="Rectangle_1165" data-name="Rectangle 1165" width="9.839" height="9.839" transform="translate(1.3 89.291)" fill="#4c2a80"/>
    <rect id="Rectangle_1166" data-name="Rectangle 1166" width="9.839" height="9.839" transform="translate(180.132 89.291)" fill="#4c2a80"/>
    <path id="Path_5710" data-name="Path 5710" d="M17.29,24.779a87.21,87.21,0,0,0-13.7,36.847L3.4,62.783H9.187l.193-.965A87.228,87.228,0,0,1,23.463,25.743L24.621,24.2H17.869Z" transform="translate(1.951 20.72)" fill="#4c2a80"/>
    <path id="Path_5711" data-name="Path 5711" d="M9.087,56.265,8.895,55.3H3.3l.193,1.157A90.944,90.944,0,0,0,17,94.269l.386.386h6.752l-1.157-1.543A87.505,87.505,0,0,1,9.087,56.265Z" transform="translate(1.858 49.617)" fill="#4c2a80"/>
    <path id="Path_5712" data-name="Path 5712" d="M101.147,61.826l.193.965h5.787l-.193-1.157a92.68,92.68,0,0,0-13.7-36.847l-.386-.386H86.1l1.157,1.543A87.745,87.745,0,0,1,101.147,61.826Z" transform="translate(78.792 20.906)" fill="#4c2a80"/>
    <path id="Path_5713" data-name="Path 5713" d="M101.44,55.3l-.193.965a86.546,86.546,0,0,1-13.89,36.847L86.2,94.655h6.752l.386-.386a87.434,87.434,0,0,0,13.5-37.811l.193-1.157Z" transform="translate(78.885 49.617)" fill="#4c2a80"/>
    <path id="Path_5714" data-name="Path 5714" d="M91.582,22.4l.193.193h9.646l-2.508-1.929A87.97,87.97,0,0,0,56.857,3.493L55.7,3.3V9.087l.965.193A81.943,81.943,0,0,1,91.582,22.4Z" transform="translate(50.546 1.301)" fill="#4c2a80"/>
    <path id="Path_5715" data-name="Path 5715" d="M23.308,20.662,20.8,22.592h9.646l.193-.193A83.513,83.513,0,0,1,65.942,9.28l.965-.193V3.3l-1.157.193A89.339,89.339,0,0,0,23.308,20.662Z" transform="translate(18.118 1.301)" fill="#4c2a80"/>
    <path id="Path_5716" data-name="Path 5716" d="M92.64,86.993a86.618,86.618,0,0,1-36.075,13.7l-.965.193v5.787l1.157-.193a90.3,90.3,0,0,0,43.02-17.748l2.508-1.929-9.646.193Z" transform="translate(50.453 78.885)" fill="#4c2a80"/>
    <path id="Path_5717" data-name="Path 5717" d="M30.239,86.993l-.386-.193H20.4l2.508,1.929a90.978,90.978,0,0,0,43.213,17.748l1.157.193v-5.787l-.965-.193A85.631,85.631,0,0,1,30.239,86.993Z" transform="translate(17.747 78.885)" fill="#4c2a80"/>
    <path id="Path_5718" data-name="Path 5718" d="M140.766,57.3,115.687,73.315l-.193,1.157a14.994,14.994,0,0,0-.386,3.087c-.193.965-.386,2.122-.579,3.28l-8.488-6.752L85.978,58.074c-2.894-1.929-6.366-1.929-10.417-.579a21.629,21.629,0,0,0-5.209,2.7L55.5,69.842a5.734,5.734,0,0,1-7.717-1.35c-1.543-2.508-1.157-4.63-.772-4.823L81.348,41.1c3.665-2.315,13.118,3.665,17.748,6.559l1.543.965L124.754,32.8l-3.087-4.823-21.221,13.89c-6.559-4.051-13.118-7.524-18.52-6.945l-5.595-4.437c-5.4-4.437-14.083-.965-22.764,3.472L41.993,24.7l-1.929,5.4L52.8,40.712l1.543-.772c4.823-2.508,14.854-7.524,18.134-4.823l3.28,2.7L43.729,58.846c-3.472,2.315-3.858,7.717-.965,12.539l.386.579c.193.386.579.579.772.965,3.087,3.087,7.331,5.787,10.8,4.244L73.631,64.826S79.8,60.968,82.7,62.9L113.179,87.2a3.359,3.359,0,0,1,.579,4.63,3.746,3.746,0,0,1-5.4.579L78.84,68.878l-3.472,4.437,32.988,26.236a3.285,3.285,0,0,1,.579,4.437,3.5,3.5,0,0,1-4.437.386l-2.122-1.543h0c-.193-.193-.386-.579-.772-.772l-29.13-23.15-3.665,4.244,29.13,23.15a3.3,3.3,0,0,1-4.051,5.209L80.962,101.094,67.651,90.484l-3.472,4.437,13.311,10.61a3.359,3.359,0,0,1,.579,4.63,3.4,3.4,0,0,1-4.823.579l-10.417-8.3L40.45,84.5c-3.858-3.087-4.244-11.189-4.437-16.591,0-1.157-.193-2.122-.193-3.087l-.193-.965L20,51.515l-2.7,5.016L30.225,66.755v1.736c.193,5.209.579,12.732,4.051,17.748A8.806,8.806,0,0,0,32.347,98.2a9.832,9.832,0,0,0,3.665,3.28,8.969,8.969,0,0,0,0,9.067h0l.193.193a.189.189,0,0,0,.193.193h0a9.049,9.049,0,0,0,8.1,3.665,10.954,10.954,0,0,0,1.35,4.244,9.043,9.043,0,0,0,12.539,2.7l6.945-4.437v.193l3.472-2.508.965.772a8.984,8.984,0,0,0,12.732-1.543,10.577,10.577,0,0,0,1.543-2.894l6.366,5.209a9.131,9.131,0,0,0,12.732-1.35,8.39,8.39,0,0,0,1.736-4.051,9.046,9.046,0,0,0,8.488-2.894h0a.189.189,0,0,1,.193-.193l.193-.193h0a9.02,9.02,0,0,0,.772-9.067,9.851,9.851,0,0,0,4.051-2.894,8.554,8.554,0,0,0,.965-9.453c.579-2.508.965-5.209,1.35-7.331,0-.579.193-1.157.193-1.543L144.045,62.7ZM36.977,95.114a3.153,3.153,0,0,1,.965-4.437l.386-.193,5.787,4.63-1.929,1.157A3.612,3.612,0,0,1,36.977,95.114Zm8.1,13.311a3.285,3.285,0,0,1-4.437-.772,3.4,3.4,0,0,1,1.157-4.244l7.138-4.63,5.016,3.858Zm9.839,8.3a3.38,3.38,0,0,1-4.63-.965,3.153,3.153,0,0,1,.965-4.437l7.138-4.823.772.579,4.823,3.858Z" transform="translate(14.866 21.185)" fill="#4c2a80"/>
  </g>
</svg>
