<svg xmlns="http://www.w3.org/2000/svg" width="300" height="300" viewBox="0 0 300 300">
  <g id="feature3" transform="translate(-3769 -459)">
    <rect id="Rectangle_1175" data-name="Rectangle 1175" width="300" height="300" transform="translate(3769 459)" fill="#fff" opacity="0"/>
    <g id="feature3-2" data-name="feature3" transform="translate(3856 509)">
      <path id="Path_5656" data-name="Path 5656" d="M64.1,41.218a7.438,7.438,0,1,1,5.3-2.178,7.474,7.474,0,0,1-5.3,2.178Zm0,4.979A27.224,27.224,0,0,1,81.732,94.121a20.9,20.9,0,0,0-8.921-2.075H70.736a15.263,15.263,0,0,0-11,6.842,4.536,4.536,0,0,1-.622,1.037A27.089,27.089,0,0,1,64.1,46.192ZM54.761,79.185c.211,2.282.829,4.149,2.282,5.394a8.763,8.763,0,0,0,5.6,2.489v3.112a.893.893,0,0,0,.829.829h2.7A.893.893,0,0,0,67,90.179V87.068a8.576,8.576,0,0,0,4.357-2.075,7.368,7.368,0,0,0,2.075-5.186,6.307,6.307,0,0,0-2.075-5.186,23.263,23.263,0,0,0-6.224-3.735,6.38,6.38,0,0,1-2.488-1.66,3.769,3.769,0,0,1,0-4.149,2.022,2.022,0,0,1,1.867-.829,2.881,2.881,0,0,1,2.075,1.037,5.844,5.844,0,0,1,.829,2.282.893.893,0,0,0,.829.829H72.6a.893.893,0,0,0,.829-.829,8.929,8.929,0,0,0-1.867-4.771A7.971,7.971,0,0,0,67,60.1v-3.32a.893.893,0,0,0-.829-.829h-2.7a.893.893,0,0,0-.829.829V60.1a7.987,7.987,0,0,0-4.979,2.282,6.584,6.584,0,0,0-2.073,5.186,6.307,6.307,0,0,0,2.075,5.186C58.914,74,61.2,75.034,64.1,76.279a4.737,4.737,0,0,1,2.489,1.66,3.726,3.726,0,0,1,.622,2.282A3.505,3.505,0,0,1,66.59,82.3a2.765,2.765,0,0,1-2.075.829,3.436,3.436,0,0,1-2.489-1.037A4.554,4.554,0,0,1,60.989,79.6a.893.893,0,0,0-.829-.829H55.8C55.173,78.354,54.761,78.769,54.761,79.185Zm85.472,34.025c-2.282-1.66-25.726-27.8-31.95-31.327V14.248A12.484,12.484,0,0,0,95.839,1.8H32.148A12.484,12.484,0,0,0,19.7,14.248V132.5a12.484,12.484,0,0,0,12.448,12.452h27.8L58.911,135c0-.211-.211-.622-.211-.829H45.84a10.874,10.874,0,0,0,.211-5.186,12.337,12.337,0,0,0-10.166-10.166,11.753,11.753,0,0,0-5.394.211V26.9a7.779,7.779,0,0,0,2.282.211A12.484,12.484,0,0,0,45.218,14.663a8.51,8.51,0,0,0-.211-2.282H82.977a7.779,7.779,0,0,0-.211,2.282A12.484,12.484,0,0,0,95.217,27.111,7.779,7.779,0,0,0,97.5,26.9v89.832h0v25.726c-4.357-3.112-9.128-13.07-9.128-13.07S86.089,102.835,72.6,102.835H71.566s-10.166.829-1.66,29.875l3.735,32.365S77.79,182.5,89.408,194.743v3.527a3.636,3.636,0,0,0,3.527,3.527h37.758a3.42,3.42,0,0,0,3.527-3.112c1.453-13.278,7.052-64.525,10.166-67.219,0,0,3.731-12.243-4.15-18.26Z" transform="translate(-19.7 -1.8)" fill="none" stroke="#4c2a80" stroke-width="4"/>
    </g>
  </g>
</svg>
