<svg xmlns="http://www.w3.org/2000/svg" width="300" height="300" viewBox="0 0 300 300">
  <g id="feature6" transform="translate(-4543 -642)">
    <rect id="Rectangle_1174" data-name="Rectangle 1174" width="300" height="300" transform="translate(4543 642)" fill="#fff" opacity="0"/>
    <g id="feature6-2" data-name="feature6" transform="translate(4594 690.99)">
      <path id="Path_5731" data-name="Path 5731" d="M169.7,86.894v6.123a3.858,3.858,0,0,1-4.082,4.2h-6.552a4.082,4.082,0,0,1-4.2-4.388V88.4a8.9,8.9,0,0,0-.163-2.041,9.92,9.92,0,0,0-1.919-.408A42.716,42.716,0,0,1,140.8,82.5c-3.474-1.674-4.082-3.061-3.082-6.756.613-2.265,1.245-4.511,2.041-6.756.367-1.163,1.041-3.347,3.184-3.347a5.858,5.858,0,0,1,2.674.857A35.879,35.879,0,0,0,157.987,70.2a14.654,14.654,0,0,0,7.695-1,5.163,5.163,0,0,0,1.224-9.143,18.879,18.879,0,0,0-4.469-2.613c-1.347-.592-2.715-1.143-4.082-1.694a64.086,64.086,0,0,1-9.225-4.286c-8.024-4.794-11.674-11.039-11.182-19.06.572-9.388,5.694-15.919,15.225-19.388,2.613-.959,2.613-.959,2.613-3.572V5.684c0-3.531,1.143-4.572,4.632-4.674h3.306c6.123,0,6.552,1,6.593,7.245,0,2.98,0,2.98,2.959,3.428A37.8,37.8,0,0,1,182.6,14.5a4.082,4.082,0,0,1,2.51,5.2l-.469,2.163c-.511,1.837-1.041,3.654-1.633,5.474-.449,1.368-1.326,4.572-5.735,2.449a27.655,27.655,0,0,0-13.756-2.737,9.408,9.408,0,0,0-3.368.674,4.491,4.491,0,0,0-2.9,3.408,4.367,4.367,0,0,0,1.852,3.937,24.042,24.042,0,0,0,5.919,3.326l1.347.551a97.957,97.957,0,0,1,10.2,4.674,22.858,22.858,0,0,1,11.572,15.654A21.388,21.388,0,0,1,183.6,76.911a23.307,23.307,0,0,1-12.164,7.756C170.028,85.055,169.641,85.566,169.7,86.894Zm11.286,23.021a4.674,4.674,0,0,0-8.306.367l-1.674,3.654-.265.572L115.128,93.749a6.572,6.572,0,0,0-5.474,11.895l52,28.573-.265.572-1.674,3.654a4.674,4.674,0,0,0,5.143,6.526l26.164-5a4.674,4.674,0,0,0,3.163-6.919ZM35.655,9.786A18.756,18.756,0,1,0,54.411,28.542,18.756,18.756,0,0,0,35.655,9.786ZM14.674,192.1a8.908,8.908,0,0,0,17.817,0v-51.88a3.388,3.388,0,0,1,2.715-3.388,3.263,3.263,0,0,1,3.817,3.224V192.1a8.9,8.9,0,1,0,17.8,0V75.952L73.514,89.728a8.388,8.388,0,0,0,10.526.122l24.655-19.474a8.613,8.613,0,0,0,2.245-11.164,8.388,8.388,0,0,0-12.347-2.224L78.963,72.422,59.247,56.094a8.347,8.347,0,0,0-5.225-1.8H17.471A14.449,14.449,0,0,0,3,68.728v36.348a14.449,14.449,0,0,0,11.654,14.164Zm165.315-36.737h-12.98a6.674,6.674,0,0,0-6.674,6.674v32.308A6.653,6.653,0,0,0,166.987,201h12.92a6.654,6.654,0,0,0,6.654-6.654V161.957a6.674,6.674,0,0,0-6.654-6.654Zm-38.7-16.9h-12.9a6.674,6.674,0,0,0-6.674,6.674v49.207A6.653,6.653,0,0,0,128.373,201h12.92a6.654,6.654,0,0,0,6.613-6.654V145.139a6.674,6.674,0,0,0-6.613-6.674ZM82,121.4v72.947A6.654,6.654,0,0,0,88.719,201h12.858a6.654,6.654,0,0,0,6.654-6.654V121.4a6.674,6.674,0,0,0-6.674-6.674H88.715A6.674,6.674,0,0,0,82,121.4Z" transform="translate(0)" fill="none" stroke="#4c2a80" stroke-width="4"/>
    </g>
  </g>
</svg>
