<svg xmlns="http://www.w3.org/2000/svg" width="122.907" height="193.384" viewBox="0 0 122.907 193.384">
  <g id="feature3" transform="translate(2 2)">
    <path id="Path_5656" data-name="Path 5656" d="M61.742,39.127a7.072,7.072,0,1,1,7.072-7.072A7.043,7.043,0,0,1,61.742,39.127Zm0,4.715a25.779,25.779,0,0,1,16.7,45.381,19.791,19.791,0,0,0-8.448-1.965H68.028a14.457,14.457,0,0,0-10.412,6.483,4.3,4.3,0,0,1-.589.982,25.652,25.652,0,0,1,4.715-50.882ZM52.9,75.078c.2,2.161.786,3.929,2.161,5.108a8.3,8.3,0,0,0,5.3,2.357V85.49a.845.845,0,0,0,.786.786h2.554a.845.845,0,0,0,.786-.786V82.544a8.12,8.12,0,0,0,4.126-1.965,6.977,6.977,0,0,0,1.965-4.911,5.973,5.973,0,0,0-1.965-4.911,22.025,22.025,0,0,0-5.894-3.536,6.042,6.042,0,0,1-2.357-1.572,3.569,3.569,0,0,1,0-3.929,1.915,1.915,0,0,1,1.768-.786,2.728,2.728,0,0,1,1.965.982,5.534,5.534,0,0,1,.786,2.161.845.845,0,0,0,.786.786H69.8a.845.845,0,0,0,.786-.786,8.455,8.455,0,0,0-1.768-4.519A7.548,7.548,0,0,0,64.492,57V53.861a.845.845,0,0,0-.786-.786H61.152a.845.845,0,0,0-.786.786V57a7.563,7.563,0,0,0-4.715,2.161,6.235,6.235,0,0,0-1.965,4.911,5.973,5.973,0,0,0,1.965,4.911c1.179,1.179,3.34,2.161,6.09,3.34A4.489,4.489,0,0,1,64.1,73.9a3.529,3.529,0,0,1,.589,2.161,3.319,3.319,0,0,1-.589,1.965,2.619,2.619,0,0,1-1.965.786,3.253,3.253,0,0,1-2.357-.982,4.312,4.312,0,0,1-.982-2.357.845.845,0,0,0-.786-.786H53.883C53.294,74.292,52.9,74.685,52.9,75.078Zm80.94,32.219c-2.161-1.572-24.361-26.325-30.254-29.665V13.587A11.822,11.822,0,0,0,91.8,1.8H31.487A11.822,11.822,0,0,0,19.7,13.587v111.98a11.822,11.822,0,0,0,11.787,11.787H57.813l-.982-9.43c0-.2-.2-.589-.2-.786H44.454a10.3,10.3,0,0,0,.2-4.911,11.682,11.682,0,0,0-9.626-9.626,11.128,11.128,0,0,0-5.108.2V25.571a7.366,7.366,0,0,0,2.161.2A11.822,11.822,0,0,0,43.864,13.98a8.059,8.059,0,0,0-.2-2.161H79.619a7.366,7.366,0,0,0-.2,2.161A11.822,11.822,0,0,0,91.21,25.768a7.366,7.366,0,0,0,2.161-.2v85.066h0V135c-4.126-2.947-8.644-12.377-8.644-12.377S82.566,97.474,69.8,97.474h-.982s-9.626.786-1.572,28.29l3.536,30.647s3.929,16.5,14.931,28.093v3.34a3.443,3.443,0,0,0,3.34,3.34H124.8a3.239,3.239,0,0,0,3.34-2.947c1.375-12.573,6.68-61.1,9.626-63.652C137.77,124.585,141.307,112.994,133.841,107.3Z" transform="translate(-19.7 -1.8)" fill="none" stroke="#4c2a80" stroke-width="4"/>
  </g>
</svg>
