<svg xmlns="http://www.w3.org/2000/svg" width="206.919" height="191.821" viewBox="0 0 206.919 191.821">
  <g id="feature4" transform="translate(-10.235 -40.006)">
    <g id="Group_1875" data-name="Group 1875" transform="translate(10.235 40.006)">
      <g id="Group_1831" data-name="Group 1831" transform="translate(19.537 111.896)">
        <path id="Path_5658" data-name="Path 5658" d="M84.367,326.64a17.317,17.317,0,1,1,17.317-17.317A17.337,17.337,0,0,1,84.367,326.64Zm0-31.97A14.653,14.653,0,1,0,99.02,309.323,14.67,14.67,0,0,0,84.367,294.67Z" transform="translate(-67.05 -292.006)" fill="#4c2a80"/>
      </g>
      <g id="Group_1832" data-name="Group 1832" transform="translate(39.075 113.672)">
        <path id="Path_5659" data-name="Path 5659" d="M124.38,308.883h-.9a15.841,15.841,0,0,1-12.112-5.35,1.332,1.332,0,0,1,.07-1.809,11.714,11.714,0,0,0,2.757-4.709,1.332,1.332,0,0,1,1.787-.913,17.056,17.056,0,0,1,9.616,10.917,1.332,1.332,0,0,1-1.222,1.864Zm-10.193-6.244a13.21,13.21,0,0,0,8.271,3.544,14.4,14.4,0,0,0-6.194-7.011A15.362,15.362,0,0,1,114.187,302.639Z" transform="translate(-111.05 -296.006)" fill="#4c2a80"/>
      </g>
      <g id="Group_1833" data-name="Group 1833" transform="translate(20.425 111.896)">
        <path id="Path_5660" data-name="Path 5660" d="M77.042,307.1a19.679,19.679,0,0,1-7.155-1.872,1.332,1.332,0,0,1-.76-1.685,17.19,17.19,0,0,1,16.351-11.541,17.767,17.767,0,0,1,7.256,1.916,1.332,1.332,0,0,1,.659,1.639A17.189,17.189,0,0,1,77.042,307.1Zm-4.923-3.854a14.079,14.079,0,0,0,4.923,1.19A14.531,14.531,0,0,0,90.427,295.8a14.113,14.113,0,0,0-4.948-1.133A14.53,14.53,0,0,0,72.12,303.249Z" transform="translate(-69.05 -292.006)" fill="#4c2a80"/>
      </g>
      <g id="Group_1834" data-name="Group 1834" transform="translate(5.328 149.194)">
        <path id="Path_5661" data-name="Path 5661" d="M95.882,404.424h-59.5a1.332,1.332,0,0,1-1.332-1.332V386.219A1.331,1.331,0,0,1,35.841,385l19.981-8.881a1.332,1.332,0,0,1,1.461.254l8.869,8.466,9.294-8.486a1.334,1.334,0,0,1,1.449-.229l19.537,8.881a1.332,1.332,0,0,1,.781,1.213v16.873A1.333,1.333,0,0,1,95.882,404.424ZM37.714,401.76H94.55V387.077l-17.956-8.162-9.564,8.732a1.332,1.332,0,0,1-1.818-.02l-9.123-8.708-18.375,8.166Z" transform="translate(-35.05 -376.006)" fill="#4c2a80"/>
      </g>
      <g id="Group_1835" data-name="Group 1835" transform="translate(24.866 149.195)">
        <path id="Path_5662" data-name="Path 5662" d="M101.251,390.216H80.382a1.332,1.332,0,0,1-1.331-1.383l.444-11.545a1.348,1.348,0,0,1,1.382-1.28,1.332,1.332,0,0,1,1.28,1.382l-.391,10.162h18.1l-.391-10.162a1.332,1.332,0,1,1,2.662-.1l.444,11.545a1.332,1.332,0,0,1-1.331,1.383Z" transform="translate(-79.05 -376.007)" fill="#4c2a80"/>
      </g>
      <g id="Group_1836" data-name="Group 1836" transform="translate(27.974 141.646)">
        <path id="Path_5663" data-name="Path 5663" d="M94.487,378.1h-.444a1.331,1.331,0,0,1-.909-.358l-6.66-6.216a1.332,1.332,0,0,1-.423-.974V360.338a1.332,1.332,0,0,1,2.017-1.142,13.643,13.643,0,0,0,6.863,2.03,17.431,17.431,0,0,0,6.61-1.681,1.332,1.332,0,0,1,1.827,1.237v9.325a1.332,1.332,0,0,1-.451,1l-7.549,6.66A1.331,1.331,0,0,1,94.487,378.1Zm-5.772-8.128,5.569,5.2,6.42-5.664v-6.777a16.4,16.4,0,0,1-5.772,1.162,15.694,15.694,0,0,1-6.216-1.369Z" transform="translate(-86.05 -359.006)" fill="#4c2a80"/>
      </g>
      <g id="Group_1837" data-name="Group 1837" transform="translate(87.918 111.896)">
        <path id="Path_5664" data-name="Path 5664" d="M237.923,326.64a17.323,17.323,0,0,1,0-34.634,17.317,17.317,0,0,1,0,34.634Zm0-31.97a14.66,14.66,0,0,0,0,29.306,14.653,14.653,0,0,0,0-29.306Z" transform="translate(-221.05 -292.006)" fill="#4c2a80"/>
      </g>
      <g id="Group_1838" data-name="Group 1838" transform="translate(107.011 113.672)">
        <path id="Path_5665" data-name="Path 5665" d="M277.379,308.883h-.453a16.814,16.814,0,0,1-12.556-5.35,1.332,1.332,0,0,1,.069-1.809,11.721,11.721,0,0,0,2.758-4.709,1.332,1.332,0,0,1,1.787-.913,17.056,17.056,0,0,1,9.616,10.917,1.333,1.333,0,0,1-1.222,1.864Zm-10.187-6.252a14.221,14.221,0,0,0,8.251,3.516,14.4,14.4,0,0,0-6.179-6.975A15.361,15.361,0,0,1,267.192,302.632Z" transform="translate(-264.049 -296.006)" fill="#4c2a80"/>
      </g>
      <g id="Group_1839" data-name="Group 1839" transform="translate(88.806 111.896)">
        <path id="Path_5666" data-name="Path 5666" d="M231.042,307.1a15.967,15.967,0,0,1-7.256-1.916,1.333,1.333,0,0,1-.685-1.558c1.924-6.735,8.625-11.623,15.934-11.623a15.967,15.967,0,0,1,7.256,1.916,1.333,1.333,0,0,1,.685,1.558C245.052,302.215,238.351,307.1,231.042,307.1Zm-5.02-3.808a12.457,12.457,0,0,0,5.02,1.144,14.07,14.07,0,0,0,13.013-8.625,12.462,12.462,0,0,0-5.021-1.144A14.07,14.07,0,0,0,226.022,303.3Z" transform="translate(-223.049 -292.006)" fill="#4c2a80"/>
      </g>
      <g id="Group_1840" data-name="Group 1840" transform="translate(73.709 149.195)">
        <path id="Path_5667" data-name="Path 5667" d="M249.882,404.424h-59.5a1.332,1.332,0,0,1-1.332-1.332V386.219a1.332,1.332,0,0,1,.781-1.213l19.537-8.881a1.334,1.334,0,0,1,1.471.25l8.869,8.466L229,376.355a1.33,1.33,0,0,1,1.439-.233L250.423,385a1.332,1.332,0,0,1,.791,1.217v16.873A1.332,1.332,0,0,1,249.882,404.424Zm-58.168-2.664H248.55V387.084l-18.394-8.175-9.57,8.738a1.332,1.332,0,0,1-1.818-.02l-9.117-8.7-17.937,8.153V401.76Z" transform="translate(-189.05 -376.006)" fill="#4c2a80"/>
      </g>
      <g id="Group_1841" data-name="Group 1841" transform="translate(92.802 149.194)">
        <path id="Path_5668" data-name="Path 5668" d="M254.251,390.215H233.382a1.332,1.332,0,0,1-1.331-1.383l.444-11.545a1.332,1.332,0,1,1,2.662.1l-.391,10.162h18.153V377.338a1.332,1.332,0,1,1,2.664,0v11.545A1.331,1.331,0,0,1,254.251,390.215Z" transform="translate(-232.05 -376.006)" fill="#4c2a80"/>
      </g>
      <g id="Group_1842" data-name="Group 1842" transform="translate(95.911 141.646)">
        <path id="Path_5669" data-name="Path 5669" d="M247.487,378.1h-.444a1.331,1.331,0,0,1-.909-.358l-6.66-6.216a1.332,1.332,0,0,1-.423-.974V360.338a1.332,1.332,0,0,1,2.017-1.142,13.641,13.641,0,0,0,6.863,2.03,15.361,15.361,0,0,0,6.509-1.636,1.333,1.333,0,0,1,1.928,1.192v9.325a1.331,1.331,0,0,1-.451,1l-7.549,6.66A1.328,1.328,0,0,1,247.487,378.1Zm-5.772-8.128,5.569,5.2,6.419-5.664V362.8a17.127,17.127,0,0,1-5.772,1.091,15.7,15.7,0,0,1-6.216-1.369v7.45Z" transform="translate(-239.05 -359.006)" fill="#4c2a80"/>
      </g>
      <g id="Group_1843" data-name="Group 1843" transform="translate(155.855 111.896)">
        <path id="Path_5670" data-name="Path 5670" d="M390.923,326.64a17.323,17.323,0,0,1,0-34.634,17.317,17.317,0,0,1,0,34.634Zm0-31.97a14.66,14.66,0,0,0,0,29.306,14.653,14.653,0,0,0,0-29.306Z" transform="translate(-374.05 -292.006)" fill="#4c2a80"/>
      </g>
      <g id="Group_1844" data-name="Group 1844" transform="translate(174.948 113.671)">
        <path id="Path_5671" data-name="Path 5671" d="M430.379,308.882h-.453a17.364,17.364,0,0,1-12.487-5.275,1.331,1.331,0,0,1,0-1.884,20.682,20.682,0,0,0,3.3-4.982,1.33,1.33,0,0,1,1.733-.621,17.442,17.442,0,0,1,9.126,10.9,1.333,1.333,0,0,1-1.222,1.864Zm-10.139-6.307a14.652,14.652,0,0,0,8.2,3.57,15.061,15.061,0,0,0-5.946-7.021A25.233,25.233,0,0,1,420.239,302.575Z" transform="translate(-417.049 -296.004)" fill="#4c2a80"/>
      </g>
      <g id="Group_1845" data-name="Group 1845" transform="translate(156.743 111.896)">
        <path id="Path_5672" data-name="Path 5672" d="M384.042,307.1a15.968,15.968,0,0,1-7.256-1.916,1.332,1.332,0,0,1-.659-1.639,17.1,17.1,0,0,1,15.907-11.541,19.765,19.765,0,0,1,7.6,1.872,1.332,1.332,0,0,1,.76,1.685A17.636,17.636,0,0,1,384.042,307.1Zm-4.956-3.78a12.413,12.413,0,0,0,4.956,1.116,14.956,14.956,0,0,0,13.354-8.58,14.689,14.689,0,0,0-5.361-1.189A14.359,14.359,0,0,0,379.086,303.324Z" transform="translate(-376.049 -292.007)" fill="#4c2a80"/>
      </g>
      <g id="Group_1846" data-name="Group 1846" transform="translate(141.646 149.195)">
        <path id="Path_5673" data-name="Path 5673" d="M402.882,404.424h-59.5a1.332,1.332,0,0,1-1.332-1.332V386.219a1.332,1.332,0,0,1,.781-1.213l19.537-8.881a1.332,1.332,0,0,1,1.471.25l8.87,8.466L382,376.355a1.33,1.33,0,0,1,1.439-.233L403.424,385a1.332,1.332,0,0,1,.791,1.217v16.873A1.333,1.333,0,0,1,402.882,404.424Zm-58.168-2.664H401.55V387.084l-18.394-8.175-9.57,8.738a1.332,1.332,0,0,1-1.818-.02l-9.117-8.7-17.937,8.153V401.76Z" transform="translate(-342.05 -376.006)" fill="#4c2a80"/>
      </g>
      <g id="Group_1847" data-name="Group 1847" transform="translate(160.739 149.195)">
        <path id="Path_5674" data-name="Path 5674" d="M407.7,390.216H386.382a1.332,1.332,0,0,1-1.331-1.383l.444-11.545a1.347,1.347,0,0,1,1.382-1.28,1.333,1.333,0,0,1,1.28,1.382l-.391,10.162h18.545l-.391-10.162a1.332,1.332,0,0,1,2.662-.1l.444,11.545a1.332,1.332,0,0,1-1.331,1.383Z" transform="translate(-385.05 -376.007)" fill="#4c2a80"/>
      </g>
      <g id="Group_1848" data-name="Group 1848" transform="translate(163.847 141.646)">
        <path id="Path_5675" data-name="Path 5675" d="M400.931,378.1h-.888a1.331,1.331,0,0,1-.909-.358l-6.66-6.216a1.332,1.332,0,0,1-.423-.974V360.338a1.332,1.332,0,0,1,2.017-1.142,13.64,13.64,0,0,0,6.863,2.03,19.759,19.759,0,0,0,7.054-1.681,1.332,1.332,0,0,1,1.827,1.237v9.325a1.331,1.331,0,0,1-.451,1l-7.549,6.66A1.328,1.328,0,0,1,400.931,378.1Zm-6.216-8.128,5.785,5.4,6.648-5.866v-6.8a19.36,19.36,0,0,1-6.216,1.187,15.7,15.7,0,0,1-6.216-1.369Z" transform="translate(-392.05 -359.006)" fill="#4c2a80"/>
      </g>
      <g id="Group_1849" data-name="Group 1849" transform="translate(53.728 55.504)">
        <path id="Path_5676" data-name="Path 5676" d="M161.367,199.64a17.317,17.317,0,1,1,17.317-17.317A17.337,17.337,0,0,1,161.367,199.64Zm0-31.97a14.653,14.653,0,1,0,14.653,14.653A14.67,14.67,0,0,0,161.367,167.67Z" transform="translate(-144.05 -165.006)" fill="#4c2a80"/>
      </g>
      <g id="Group_1850" data-name="Group 1850" transform="translate(73.265 56.836)">
        <path id="Path_5677" data-name="Path 5677" d="M201.38,181.327h-.453a16.147,16.147,0,0,1-12.556-5.35,1.332,1.332,0,0,1-.054-1.666,13.516,13.516,0,0,0,2.868-5.235,1.332,1.332,0,0,1,1.9-.93,17.873,17.873,0,0,1,9.528,11.346,1.333,1.333,0,0,1-1.234,1.834Zm-10.266-6.313a13.166,13.166,0,0,0,8.394,3.594,14.824,14.824,0,0,0-6.218-7.306A16.829,16.829,0,0,1,191.114,175.014Z" transform="translate(-188.05 -168.006)" fill="#4c2a80"/>
      </g>
      <g id="Group_1851" data-name="Group 1851" transform="translate(54.616 55.504)">
        <path id="Path_5678" data-name="Path 5678" d="M154.042,179.66a19.232,19.232,0,0,1-7.155-1.427,1.332,1.332,0,0,1-.76-1.685,17.635,17.635,0,0,1,16.351-11.541,16.2,16.2,0,0,1,7.256,1.473,1.331,1.331,0,0,1,.658,1.639A17.19,17.19,0,0,1,154.042,179.66Zm-4.9-3.447a16.164,16.164,0,0,0,4.9.782,14.531,14.531,0,0,0,13.371-8.605,15.2,15.2,0,0,0-4.935-.719A14.957,14.957,0,0,0,149.143,176.213Z" transform="translate(-146.05 -165.007)" fill="#4c2a80"/>
      </g>
      <g id="Group_1852" data-name="Group 1852" transform="translate(39.519 92.802)">
        <path id="Path_5679" data-name="Path 5679" d="M173.326,266.322a1.332,1.332,0,0,1-1.332-1.332v-5.333L153.613,251.9l-9.583,8.75a1.332,1.332,0,0,1-1.818-.02l-9.136-8.721-18.362,7.753v5.333a1.332,1.332,0,0,1-2.664,0v-6.216a1.332,1.332,0,0,1,.814-1.227l19.981-8.437a1.332,1.332,0,0,1,1.438.264l8.869,8.466,9.294-8.486a1.33,1.33,0,0,1,1.416-.243l19.981,8.437a1.332,1.332,0,0,1,.814,1.227v6.216A1.332,1.332,0,0,1,173.326,266.322Z" transform="translate(-112.05 -249.005)" fill="#4c2a80"/>
      </g>
      <g id="Group_1853" data-name="Group 1853" transform="translate(59.056 92.803)">
        <path id="Path_5680" data-name="Path 5680" d="M178.252,262.771H157.382a1.332,1.332,0,0,1-1.331-1.385l.444-11.1a1.332,1.332,0,0,1,2.662.107l-.389,9.715h18.1l-.389-9.715a1.332,1.332,0,0,1,2.662-.107l.444,11.1a1.332,1.332,0,0,1-1.331,1.385Z" transform="translate(-156.051 -249.006)" fill="#4c2a80"/>
      </g>
      <g id="Group_1854" data-name="Group 1854" transform="translate(62.164 85.254)">
        <path id="Path_5681" data-name="Path 5681" d="M171.487,251.1h-.444a1.331,1.331,0,0,1-.909-.358l-6.66-6.216a1.332,1.332,0,0,1-.423-.974V233.338a1.332,1.332,0,0,1,2.017-1.142,13.643,13.643,0,0,0,6.863,2.03,17.423,17.423,0,0,0,6.61-1.681,1.332,1.332,0,0,1,1.827,1.237v9.325a1.332,1.332,0,0,1-.451,1l-7.549,6.66A1.33,1.33,0,0,1,171.487,251.1Zm-5.772-8.128,5.569,5.2,6.42-5.664v-6.777a16.408,16.408,0,0,1-5.772,1.162,15.7,15.7,0,0,1-6.216-1.369v7.45Z" transform="translate(-163.05 -232.005)" fill="#4c2a80"/>
      </g>
      <g id="Group_1855" data-name="Group 1855" transform="translate(122.553 55.504)">
        <path id="Path_5682" data-name="Path 5682" d="M316.367,199.64a17.317,17.317,0,0,1,0-34.634,17.323,17.323,0,0,1,0,34.634Zm0-31.97a14.653,14.653,0,0,0,0,29.306,14.66,14.66,0,0,0,0-29.306Z" transform="translate(-299.05 -165.006)" fill="#4c2a80"/>
      </g>
      <g id="Group_1856" data-name="Group 1856" transform="translate(141.645 56.836)">
        <path id="Path_5683" data-name="Path 5683" d="M355.379,181.327h-.453a17.364,17.364,0,0,1-12.487-5.275,1.332,1.332,0,0,1-.124-1.741,23.912,23.912,0,0,0,3.381-5.468,1.332,1.332,0,0,1,1.884-.67,18.445,18.445,0,0,1,9.033,11.32,1.333,1.333,0,0,1-1.234,1.833Zm-10.218-6.375A14.663,14.663,0,0,0,353.5,178.6a15.707,15.707,0,0,0-5.98-7.34A26.808,26.808,0,0,1,345.161,174.952Z" transform="translate(-342.049 -168.007)" fill="#4c2a80"/>
      </g>
      <g id="Group_1857" data-name="Group 1857" transform="translate(123.44 55.504)">
        <path id="Path_5684" data-name="Path 5684" d="M309.042,179.659a16.2,16.2,0,0,1-7.256-1.473,1.332,1.332,0,0,1-.658-1.639,17.19,17.19,0,0,1,16.351-11.541,19.234,19.234,0,0,1,7.155,1.427,1.332,1.332,0,0,1,.76,1.685A17.635,17.635,0,0,1,309.042,179.659Zm-4.935-3.383a15.2,15.2,0,0,0,4.935.719,14.957,14.957,0,0,0,13.336-8.542,16.164,16.164,0,0,0-4.9-.782A14.531,14.531,0,0,0,304.108,176.276Z" transform="translate(-301.049 -165.006)" fill="#4c2a80"/>
      </g>
      <g id="Group_1858" data-name="Group 1858" transform="translate(108.344 92.802)">
        <path id="Path_5685" data-name="Path 5685" d="M327.883,266.322a1.332,1.332,0,0,1-1.332-1.332v-5.333L308.17,251.9l-9.583,8.75a1.332,1.332,0,0,1-1.818-.02l-9.131-8.715-17.923,7.74v5.34a1.332,1.332,0,1,1-2.664,0v-6.216a1.332,1.332,0,0,1,.8-1.223l19.537-8.437a1.333,1.333,0,0,1,1.448.259l8.87,8.466L307,249.353a1.328,1.328,0,0,1,1.416-.243l19.981,8.437a1.332,1.332,0,0,1,.814,1.227v6.216A1.333,1.333,0,0,1,327.883,266.322Z" transform="translate(-267.051 -249.004)" fill="#4c2a80"/>
      </g>
      <g id="Group_1859" data-name="Group 1859" transform="translate(127.437 92.803)">
        <path id="Path_5686" data-name="Path 5686" d="M332.7,262.771H311.382a1.333,1.333,0,0,1-1.331-1.385l.444-11.1a1.332,1.332,0,0,1,2.662.107l-.389,9.715h18.541l-.389-9.715a1.332,1.332,0,0,1,2.662-.107l.444,11.1a1.333,1.333,0,0,1-1.331,1.385Z" transform="translate(-310.05 -249.007)" fill="#4c2a80"/>
      </g>
      <g id="Group_1860" data-name="Group 1860" transform="translate(130.545 85.254)">
        <path id="Path_5687" data-name="Path 5687" d="M325.931,251.1h-.888a1.331,1.331,0,0,1-.909-.358l-6.66-6.216a1.332,1.332,0,0,1-.423-.974V233.338a1.331,1.331,0,0,1,2.017-1.142,14.016,14.016,0,0,0,7.307,2.03,19.076,19.076,0,0,0,6.61-1.681,1.332,1.332,0,0,1,1.827,1.237v9.325a1.331,1.331,0,0,1-.451,1l-7.549,6.66A1.326,1.326,0,0,1,325.931,251.1Zm-6.216-8.128,5.785,5.4,6.648-5.866v-6.8a17.883,17.883,0,0,1-5.772,1.186,16.6,16.6,0,0,1-6.66-1.371Z" transform="translate(-317.05 -232.005)" fill="#4c2a80"/>
      </g>
      <g id="Group_1861" data-name="Group 1861" transform="translate(86.586)">
        <path id="Path_5688" data-name="Path 5688" d="M235.367,74.64a17.317,17.317,0,1,1,17.317-17.317A17.337,17.337,0,0,1,235.367,74.64Zm0-31.97A14.653,14.653,0,1,0,250.02,57.323,14.67,14.67,0,0,0,235.367,42.67Z" transform="translate(-218.05 -40.006)" fill="#4c2a80"/>
      </g>
      <g id="Group_1862" data-name="Group 1862" transform="translate(106.123 1.776)">
        <path id="Path_5689" data-name="Path 5689" d="M274.935,56.883h-.453a15.838,15.838,0,0,1-12.112-5.35,1.332,1.332,0,0,1,.069-1.809,14.639,14.639,0,0,0,2.322-3.873c.181-.38.359-.753.537-1.109a1.334,1.334,0,0,1,1.686-.641A15.392,15.392,0,0,1,276.2,55.132a1.334,1.334,0,0,1-1.266,1.751Zm-9.772-6.267a13.165,13.165,0,0,0,8.007,3.544,12.752,12.752,0,0,0-6.049-7.066A22.282,22.282,0,0,1,265.163,50.616Z" transform="translate(-262.049 -44.006)" fill="#4c2a80"/>
      </g>
      <g id="Group_1863" data-name="Group 1863" transform="translate(87.474 0)">
        <path id="Path_5690" data-name="Path 5690" d="M228.042,55.1a19.687,19.687,0,0,1-7.155-1.871,1.332,1.332,0,0,1-.76-1.685,17.19,17.19,0,0,1,16.351-11.541,19.685,19.685,0,0,1,7.155,1.871,1.332,1.332,0,0,1,.76,1.685A17.19,17.19,0,0,1,228.042,55.1ZM223.12,51.25a14.079,14.079,0,0,0,4.923,1.19A14.531,14.531,0,0,0,241.4,43.86a14.081,14.081,0,0,0-4.923-1.19A14.53,14.53,0,0,0,223.12,51.25Z" transform="translate(-220.05 -40.007)" fill="#4c2a80"/>
      </g>
      <g id="Group_1864" data-name="Group 1864" transform="translate(72.378 37.299)">
        <path id="Path_5691" data-name="Path 5691" d="M246.883,141.323a1.332,1.332,0,0,1-1.332-1.332v-4.915l-17.974-8.17-10.01,8.759a1.332,1.332,0,0,1-1.819-.061l-8.678-8.678-18.354,8.158v4.907a1.332,1.332,0,0,1-2.664,0v-5.772a1.331,1.331,0,0,1,.791-1.217l19.981-8.881a1.331,1.331,0,0,1,1.483.275l8.444,8.443,9.719-8.5a1.335,1.335,0,0,1,1.428-.21l19.537,8.881a1.332,1.332,0,0,1,.781,1.213v5.772A1.333,1.333,0,0,1,246.883,141.323Z" transform="translate(-186.052 -124.006)" fill="#4c2a80"/>
      </g>
      <g id="Group_1865" data-name="Group 1865" transform="translate(91.47 37.298)">
        <path id="Path_5692" data-name="Path 5692" d="M251.7,138.215H230.382a1.332,1.332,0,0,1-1.328-1.434l.888-11.545a1.332,1.332,0,1,1,2.656.2l-.777,10.111h18.491l-.391-10.162a1.332,1.332,0,0,1,2.662-.1l.444,11.545a1.333,1.333,0,0,1-1.331,1.384Z" transform="translate(-229.05 -124.005)" fill="#4c2a80"/>
      </g>
      <g id="Group_1866" data-name="Group 1866" transform="translate(95.023 29.75)">
        <path id="Path_5693" data-name="Path 5693" d="M245.487,126.1h-.444a1.334,1.334,0,0,1-.909-.358l-6.66-6.216a1.332,1.332,0,0,1-.423-.974V108.338a1.332,1.332,0,0,1,2.017-1.142,13.641,13.641,0,0,0,6.863,2.03,17.421,17.421,0,0,0,6.61-1.681,1.332,1.332,0,0,1,1.827,1.237v9.325a1.333,1.333,0,0,1-.451,1l-7.549,6.66A1.329,1.329,0,0,1,245.487,126.1Zm-5.772-8.128,5.569,5.2,6.419-5.665v-6.777a16.406,16.406,0,0,1-5.772,1.162,15.7,15.7,0,0,1-6.216-1.369v7.45Z" transform="translate(-237.05 -107.006)" fill="#4c2a80"/>
      </g>
      <g id="Group_1867" data-name="Group 1867" transform="translate(1.776 7.548)">
        <path id="Path_5694" data-name="Path 5694" d="M28.38,192.879a1.332,1.332,0,0,1-1.144-2.012L106.274,57.658a1.332,1.332,0,0,1,2.291,1.36L29.527,192.227A1.331,1.331,0,0,1,28.38,192.879Z" transform="translate(-27.049 -57.006)" fill="#4c2a80"/>
      </g>
      <g id="Group_1868" data-name="Group 1868" transform="translate(125.216 7.548)">
        <path id="Path_5695" data-name="Path 5695" d="M385.421,192.879a1.331,1.331,0,0,1-1.147-.652L305.236,59.018a1.332,1.332,0,0,1,2.291-1.36l79.037,133.209a1.332,1.332,0,0,1-1.144,2.012Z" transform="translate(-305.049 -57.006)" fill="#4c2a80"/>
      </g>
      <g id="Group_1869" data-name="Group 1869" transform="translate(5.328 183.385)">
        <path id="Path_5696" data-name="Path 5696" d="M170.479,455.67H36.382a1.332,1.332,0,0,1,0-2.664h134.1a1.332,1.332,0,1,1,0,2.664Z" transform="translate(-35.05 -453.006)" fill="#4c2a80"/>
      </g>
      <g id="Group_1870" data-name="Group 1870" transform="translate(83.922 189.157)">
        <path id="Path_5697" data-name="Path 5697" d="M306.185,468.67h-92.8a1.332,1.332,0,1,1,0-2.664h92.8a1.332,1.332,0,0,1,0,2.664Z" transform="translate(-212.05 -466.006)" fill="#4c2a80"/>
      </g>
      <g id="Group_1871" data-name="Group 1871" transform="translate(186.049 189.157)">
        <path id="Path_5698" data-name="Path 5698" d="M455.371,468.67H443.382a1.332,1.332,0,1,1,0-2.664h11.989a1.332,1.332,0,0,1,0,2.664Z" transform="translate(-442.05 -466.006)" fill="#4c2a80"/>
      </g>
      <g id="Group_1872" data-name="Group 1872" transform="translate(0 188.713)">
        <path id="Path_5699" data-name="Path 5699" d="M68.341,467.67H24.382a1.332,1.332,0,0,1,0-2.664H68.341a1.332,1.332,0,0,1,0,2.664Z" transform="translate(-23.05 -465.006)" fill="#4c2a80"/>
      </g>
      <g id="Group_1873" data-name="Group 1873" transform="translate(71.489 143.865)">
        <path id="Path_5700" data-name="Path 5700" d="M185.382,376.882a1.332,1.332,0,0,1-1.332-1.332V372a1.332,1.332,0,0,1,.666-1.154l11.545-6.66a1.332,1.332,0,1,1,1.331,2.308l-10.878,6.276v2.783A1.332,1.332,0,0,1,185.382,376.882Z" transform="translate(-184.05 -364.004)" fill="#4c2a80"/>
      </g>
      <g id="Group_1874" data-name="Group 1874" transform="translate(149.671 120.776)">
        <path id="Path_5701" data-name="Path 5701" d="M363.645,330.211a1.331,1.331,0,0,1-1.138-.638c-5.261-8.608-.2-16.623.018-16.959a1.332,1.332,0,0,1,2.238,1.445,13.786,13.786,0,0,0,.016,14.125,1.332,1.332,0,0,1-1.135,2.027Z" transform="translate(-360.124 -312.006)" fill="#4c2a80"/>
      </g>
    </g>
  </g>
</svg>
