<svg xmlns="http://www.w3.org/2000/svg" width="300" height="300" viewBox="0 0 300 300">
  <g id="feature5" transform="translate(-3829 -223)">
    <rect id="Rectangle_1173" data-name="Rectangle 1173" width="300" height="300" transform="translate(3829 223)" fill="#fff" opacity="0"/>
    <g id="feature5-2" data-name="feature5" transform="translate(3878.7 271.1)">
      <rect id="Rectangle_1159" data-name="Rectangle 1159" width="10.357" height="10.357" transform="translate(95.321 1.9)" fill="#4c2a80"/>
      <rect id="Rectangle_1160" data-name="Rectangle 1160" width="10.357" height="10.357" transform="translate(95.321 191.543)" fill="#4c2a80"/>
      <rect id="Rectangle_1161" data-name="Rectangle 1161" width="10.357" height="10.357" transform="translate(27.293 161.251)" fill="#4c2a80"/>
      <rect id="Rectangle_1162" data-name="Rectangle 1162" width="10.357" height="10.357" transform="translate(160.505 161.251)" fill="#4c2a80"/>
      <rect id="Rectangle_1163" data-name="Rectangle 1163" width="10.357" height="10.357" transform="translate(27.293 30.329)" fill="#4c2a80"/>
      <rect id="Rectangle_1164" data-name="Rectangle 1164" width="10.357" height="10.357" transform="translate(160.505 30.329)" fill="#4c2a80"/>
      <rect id="Rectangle_1165" data-name="Rectangle 1165" width="10.357" height="10.357" transform="translate(1.3 95.892)" fill="#4c2a80"/>
      <rect id="Rectangle_1166" data-name="Rectangle 1166" width="10.357" height="10.357" transform="translate(189.544 95.892)" fill="#4c2a80"/>
      <path id="Path_5710" data-name="Path 5710" d="M18.021,24.809A91.8,91.8,0,0,0,3.6,63.6l-.2,1.218H9.492l.2-1.016A91.819,91.819,0,0,1,24.519,25.824L25.738,24.2H18.631Z" transform="translate(2.164 24.162)" fill="#4c2a80"/>
      <path id="Path_5711" data-name="Path 5711" d="M9.392,56.316l-.2-1.016H3.3l.2,1.218a95.731,95.731,0,0,0,14.218,39.8l.406.406h7.107L24.017,95.1A92.11,92.11,0,0,1,9.392,56.316Z" transform="translate(2.061 57.873)" fill="#4c2a80"/>
      <path id="Path_5712" data-name="Path 5712" d="M101.939,63.8l.2,1.016h6.092l-.2-1.218A97.558,97.558,0,0,0,93.609,24.807L93.2,24.4H86.1l1.218,1.624A92.363,92.363,0,0,1,101.939,63.8Z" transform="translate(87.402 24.377)" fill="#4c2a80"/>
      <path id="Path_5713" data-name="Path 5713" d="M102.242,55.3l-.2,1.016A91.1,91.1,0,0,1,87.418,95.1L86.2,96.726h7.107l.406-.406a92.036,92.036,0,0,0,14.211-39.8l.2-1.218Z" transform="translate(87.505 57.873)" fill="#4c2a80"/>
      <path id="Path_5714" data-name="Path 5714" d="M93.471,23.405l.2.2h10.154l-2.64-2.031A92.6,92.6,0,0,0,56.918,3.5L55.7,3.3V9.392l1.016.2A86.256,86.256,0,0,1,93.471,23.405Z" transform="translate(56.069 1.443)" fill="#4c2a80"/>
      <path id="Path_5715" data-name="Path 5715" d="M23.44,21.576,20.8,23.607H30.954l.2-.2A87.908,87.908,0,0,1,68.318,9.595l1.016-.2V3.3l-1.218.2A94.041,94.041,0,0,0,23.44,21.576Z" transform="translate(20.098 1.443)" fill="#4c2a80"/>
      <path id="Path_5716" data-name="Path 5716" d="M94.589,87a91.177,91.177,0,0,1-37.974,14.421l-1.016.2v6.092l1.218-.2A95.053,95.053,0,0,0,102.1,88.834l2.64-2.031-10.154.2Z" transform="translate(55.966 91.544)" fill="#4c2a80"/>
      <path id="Path_5717" data-name="Path 5717" d="M30.757,87l-.406-.2H20.4l2.64,2.031a95.766,95.766,0,0,0,45.487,18.682l1.218.2v-6.092l-1.016-.2A90.138,90.138,0,0,1,30.757,87Z" transform="translate(19.686 91.544)" fill="#4c2a80"/>
      <path id="Path_5718" data-name="Path 5718" d="M147.264,60.358l-26.4,17.513-.2,1.263a17.007,17.007,0,0,0-.406,3.376c-.2,1.053-.406,2.316-.609,3.587l-8.935-7.385L89.593,61.2c-3.046-2.105-6.7-2.105-10.965-.632a22.444,22.444,0,0,0-5.483,2.954L57.511,74.068a5.888,5.888,0,0,1-8.123-1.474c-1.624-2.743-1.218-5.064-.813-5.275L84.719,42.635c3.858-2.532,13.808,4.008,18.682,7.174l1.624,1.053,25.383-17.3-3.249-5.275L104.822,43.479c-6.9-4.431-13.808-8.228-19.495-7.6l-5.889-4.853c-5.684-4.853-14.824-1.053-23.962,3.8L43.293,24.7l-2.031,5.907L54.668,42.213l1.624-.842c5.077-2.743,15.636-8.228,19.088-5.275l3.453,2.954-33.714,23c-3.655,2.532-4.061,8.44-1.016,13.715l.406.632c.2.421.609.632.813,1.053,3.249,3.376,7.717,6.329,11.368,4.642l19.9-13.5s6.5-4.22,9.544-2.105l32.085,26.585a3.773,3.773,0,0,1,.609,5.064,3.846,3.846,0,0,1-5.684.632L82.079,73.016l-3.655,4.853,34.724,28.7a3.691,3.691,0,0,1,.609,4.853,3.579,3.579,0,0,1-4.671.421l-2.234-1.684h0c-.2-.211-.406-.632-.813-.842L75.378,83.989,71.52,88.632l30.663,25.319a3.773,3.773,0,0,1,.609,5.064,3.445,3.445,0,0,1-4.874.632L84.313,108.254,70.3,96.649,66.646,101.5l14.012,11.605a3.773,3.773,0,0,1,.609,5.064,3.485,3.485,0,0,1-5.077.632l-10.966-9.072L41.668,90.108C37.607,86.733,37.2,77.871,37,71.963c0-1.263-.2-2.316-.2-3.376l-.2-1.053L20.142,54.028,17.3,59.515,30.905,70.7v1.895c.2,5.7.609,13.925,4.264,19.412a9.883,9.883,0,0,0-2.031,13.082A10.493,10.493,0,0,0,37,108.676a10.141,10.141,0,0,0,0,9.917h0l.2.211a.2.2,0,0,0,.2.211h0a9.383,9.383,0,0,0,8.526,4.008,12.316,12.316,0,0,0,1.421,4.642,9.307,9.307,0,0,0,13.2,2.954l7.311-4.853v.211l3.655-2.743,1.016.842a9.222,9.222,0,0,0,13.4-1.684,11.727,11.727,0,0,0,1.624-3.165l6.7,5.7a9.313,9.313,0,0,0,15.231-5.907,9.314,9.314,0,0,0,8.935-3.165h0a.2.2,0,0,1,.2-.211l.2-.211h0a10.192,10.192,0,0,0,.813-9.917,10.387,10.387,0,0,0,4.264-3.165,9.652,9.652,0,0,0,1.016-10.339c.609-2.743,1.016-5.7,1.421-8.018,0-.632.2-1.263.2-1.684l24.165-16.036ZM38.013,101.714a3.528,3.528,0,0,1,1.016-4.853l.406-.211,6.092,5.064L43.5,102.978a3.722,3.722,0,0,1-5.483-1.264Zm8.526,14.559a3.375,3.375,0,0,1-4.671-.842,3.809,3.809,0,0,1,1.218-4.642l7.514-5.064,5.28,4.22ZM56.9,125.345a3.474,3.474,0,0,1-4.874-1.053,3.528,3.528,0,0,1,1.016-4.853l7.514-5.275.813.632,5.077,4.22Z" transform="translate(16.491 23.5)" fill="#4c2a80"/>
    </g>
  </g>
</svg>
