<svg xmlns="http://www.w3.org/2000/svg" width="300" height="300" viewBox="0 0 300 300">
  <g id="feature1" transform="translate(-3294 -45)">
    <rect id="Rectangle_1172" data-name="Rectangle 1172" width="300" height="300" transform="translate(3294 45)" fill="#fff" opacity="0"/>
    <g id="feature1-2" data-name="feature1" transform="translate(3377 95)">
      <g id="Group_1815" data-name="Group 1815" transform="translate(0 0)">
        <path id="Path_5644" data-name="Path 5644" d="M37.346,88.264,50.1,83.386l1.464,7a6.049,6.049,0,0,0,5.855,4.665H82.3a6.023,6.023,0,0,0,5.855-4.878l1.464-7,12.755,4.878a4.211,4.211,0,0,0,5.645-4.029V73.206c0-8.271-5.227-13.573-8.992-16.118a9.7,9.7,0,0,1-3.973-7.211C92.548,22.307,77.49,7.673,71.848,3.221a3.146,3.146,0,0,0-4.182,0c-5.649,4.453-20.492,18.875-23,46.441a10.124,10.124,0,0,1-3.973,7.423C36.928,59.634,31.7,64.723,31.7,73.206V84.022a4.247,4.247,0,0,0,5.645,4.242Zm32.62-53.023A9.968,9.968,0,1,1,60,45.209,9.968,9.968,0,0,1,69.966,35.241Z" transform="translate(-3.281 -2.425)" fill="none" stroke="#4c2a80" stroke-width="4"/>
        <path id="Path_5645" data-name="Path 5645" d="M40.5,54.265V65.294a4.666,4.666,0,1,0,9.332,0V54.265a4.666,4.666,0,0,0-9.332,0Z" transform="translate(6.172 49.546)" fill="none" stroke="#4c2a80" stroke-width="4"/>
        <path id="Path_5646" data-name="Path 5646" d="M52.465,49.6A4.707,4.707,0,0,0,47.8,54.265V70.383a4.666,4.666,0,0,0,9.332,0V54.265A4.707,4.707,0,0,0,52.465,49.6Z" transform="translate(14.219 49.52)" fill="none" stroke="#4c2a80" stroke-width="4"/>
        <path id="Path_5647" data-name="Path 5647" d="M55.1,54.265V65.294a4.666,4.666,0,1,0,9.332,0V54.265a4.666,4.666,0,0,0-9.332,0Z" transform="translate(22.265 49.546)" fill="none" stroke="#4c2a80" stroke-width="4"/>
        <path id="Path_5648" data-name="Path 5648" d="M72.38,99.709,50.748,74.684a5.391,5.391,0,0,0-7.847-.421,5.8,5.8,0,0,0-1.273,6.786l.632,1.273A128.705,128.705,0,0,0,53.93,100.77l3.818,5.089a3.216,3.216,0,0,1,.632,2.757,3.934,3.934,0,0,1-1.484,2.545,3.216,3.216,0,0,1-2.757.632,3.934,3.934,0,0,1-2.545-1.484l-3.819-5.085A133.79,133.79,0,0,1,35.478,85.5l-.632-1.273a12.987,12.987,0,0,1,2.969-15.694c.421-.211.632-.632,1.06-.848L31.024,47.75a6.149,6.149,0,0,0-5.514-4.029,6.509,6.509,0,0,0-5.089,1.7A6.9,6.9,0,0,0,18.3,50.3l.848,51.535a18.666,18.666,0,0,0,5.3,12.937L43.962,134.7H77.046l-.632-25.025a15.529,15.529,0,0,0-4.035-9.968Z" transform="translate(-18.3 42.181)" fill="none" stroke="#4c2a80" stroke-width="4"/>
        <path id="Path_5649" data-name="Path 5649" d="M30.7,102.837a3.263,3.263,0,0,0,3.181,3.181H60.174a3.263,3.263,0,0,0,3.181-3.181V89.9H30.7Z" transform="translate(-4.684 93.982)" fill="none" stroke="#4c2a80" stroke-width="4"/>
        <path id="Path_5650" data-name="Path 5650" d="M110.625,45.418a6.261,6.261,0,0,0-5.089-1.7,6.588,6.588,0,0,0-5.514,4.029L92.174,67.687c.421.211.632.632,1.06.848A12.987,12.987,0,0,1,96.2,84.228L95.572,85.5a138.33,138.33,0,0,1-12.308,19.724L79.445,110.1a3.934,3.934,0,0,1-2.545,1.484,4.121,4.121,0,0,1-2.757-.632,3.934,3.934,0,0,1-1.484-2.545,4.121,4.121,0,0,1,.632-2.757l3.818-5.089A141.642,141.642,0,0,0,88.781,82.108l.632-1.273a5.8,5.8,0,0,0-1.273-6.786,5.6,5.6,0,0,0-4.029-1.484,6.01,6.01,0,0,0-3.818,1.908L58.665,99.71a16.687,16.687,0,0,0-4.029,9.756L54,134.7H86.872l19.512-19.936a18.291,18.291,0,0,0,5.3-12.937l.848-51.535a5.967,5.967,0,0,0-1.908-4.878Z" transform="translate(20.624 42.181)" fill="none" stroke="#4c2a80" stroke-width="4"/>
        <path id="Path_5651" data-name="Path 5651" d="M54,102.837a3.263,3.263,0,0,0,3.181,3.181H83.474a3.263,3.263,0,0,0,3.181-3.181V89.9H54Z" transform="translate(20.901 93.982)" fill="none" stroke="#4c2a80" stroke-width="4"/>
      </g>
    </g>
  </g>
</svg>
